<?xml version="1.0" encoding="utf-8"?>
<!-- Generator: Adobe Illustrator 21.0.0, SVG Export Plug-In . SVG Version: 6.00 Build 0)  -->
<svg version="1.1" id="Layer_1" xmlns="http://www.w3.org/2000/svg" xmlns:xlink="http://www.w3.org/1999/xlink" x="0px" y="0px"
	 width="3000px" height="2000px" viewBox="0 0 3000 2000" style="enable-background:new 0 0 3000 2000;" xml:space="preserve">
<style type="text/css">
	.st0{fill-rule:evenodd;clip-rule:evenodd;fill:#A6E0F4;}
	.st1{fill-rule:evenodd;clip-rule:evenodd;fill:#B9EAFA;}
	.st2{fill-rule:evenodd;clip-rule:evenodd;fill:#FFFFFF;}
	.st3{fill-rule:evenodd;clip-rule:evenodd;fill:#7D482E;}
	.st4{fill-rule:evenodd;clip-rule:evenodd;fill:#703F26;}
	.st5{fill-rule:evenodd;clip-rule:evenodd;fill:#EA6371;}
	.st6{fill-rule:evenodd;clip-rule:evenodd;fill:#D95764;}
	.st7{fill-rule:evenodd;clip-rule:evenodd;fill:#FDD35A;}
	.st8{fill-rule:evenodd;clip-rule:evenodd;fill:#EDC653;}
	.st9{fill-rule:evenodd;clip-rule:evenodd;fill:#DBB541;}
	.st10{fill-rule:evenodd;clip-rule:evenodd;fill:#D98E77;}
	.st11{fill-rule:evenodd;clip-rule:evenodd;fill:#FBBEAC;}
	.st12{fill-rule:evenodd;clip-rule:evenodd;fill:#ED8463;}
	.st13{fill-rule:evenodd;clip-rule:evenodd;fill:#FFCEBF;}
	.st14{fill-rule:evenodd;clip-rule:evenodd;fill:#FCB39C;}
	.st15{fill-rule:evenodd;clip-rule:evenodd;fill:#FCCFC2;}
	.st16{fill-rule:evenodd;clip-rule:evenodd;fill:#EBA996;}
	.st17{fill-rule:evenodd;clip-rule:evenodd;fill:#DEA492;}
	.st18{fill-rule:evenodd;clip-rule:evenodd;fill:#F59578;}
	.st19{fill-rule:evenodd;clip-rule:evenodd;fill:#E8BEB5;}
	.st20{fill-rule:evenodd;clip-rule:evenodd;fill:#EEC8BF;}
	.st21{fill-rule:evenodd;clip-rule:evenodd;fill:#633A26;}
	.st22{fill-rule:evenodd;clip-rule:evenodd;fill:#4D2C1B;}
	.st23{fill-rule:evenodd;clip-rule:evenodd;fill:#80513A;}
	.st24{fill-rule:evenodd;clip-rule:evenodd;fill:#F7A288;}
	.st25{fill-rule:evenodd;clip-rule:evenodd;fill:#824E34;}
	.st26{fill-rule:evenodd;clip-rule:evenodd;fill:#E05A67;}
	.st27{fill-rule:evenodd;clip-rule:evenodd;fill:#F28A94;}
	.st28{fill-rule:evenodd;clip-rule:evenodd;fill:#FCDD80;}
	.st29{fill-rule:evenodd;clip-rule:evenodd;fill:#CCCCCC;}
	.st30{fill-rule:evenodd;clip-rule:evenodd;fill:#E6E6E6;}
	.st31{fill-rule:evenodd;clip-rule:evenodd;fill:#FAA084;}
	.st32{fill-rule:evenodd;clip-rule:evenodd;fill:#E37756;}
	.st33{fill-rule:evenodd;clip-rule:evenodd;fill:#C76445;}
</style>
<g>
	<rect x="0.5" y="0.5" class="st0" width="3000" height="2000"/>
	<path class="st1" d="M1375.3,903.8h-700c-89.4,0-162.5,73.1-162.5,162.5v0c0,89.4,73.1,162.5,162.5,162.5h700
		c89.4,0,162.5-73.1,162.5-162.5v0C1537.8,977,1464.7,903.8,1375.3,903.8z"/>
	<g>
		<path class="st1" d="M621.5,1504.8l-12.3-1c-3.4-3.2-8.7-5.2-16.4-4.9c-1,0-4.3-0.9-9-2.2l1-2.1c2.2-4.5,0.3-10-4.2-12.2
			c-4.5-2.2-10-0.3-12.2,4.2l-2.5,5.2c-17.7-4.4-39-8.1-47.4-1.1c-13.3,11-13.9,24.3-13.1,39.1l-10.4-1.3c-5-0.6-9.6,2.9-10.2,7.9
			c-0.6,5,2.9,9.6,7.9,10.2l12.6,1.6c0.3,0,0.7,0.1,1,0.1c0,5.5-0.3,11.1-1.5,16.9c-1.8,8.8-1,15.3,1.7,19.8l-3.6,10.4
			c-1.6,4.8,0.9,10,5.7,11.6c4.8,1.6,10-0.9,11.6-5.7l3-8.8c12-0.2,28.3-6.7,44.8-18.3l6.4,9.9c2.7,4.3,8.4,5.5,12.6,2.8
			c4.3-2.7,5.5-8.4,2.8-12.6l-6.8-10.7c-0.2-0.3-0.4-0.5-0.6-0.8c10.9-9.7,21.4-21.4,30.2-34.8c0.8-1.3,1.5-3.1,1.9-5.3l5.6,0.4
			c5,0.4,9.5-3.4,9.8-8.5C630.3,1509.6,626.5,1505.2,621.5,1504.8z"/>
		<ellipse class="st0" cx="524.8" cy="1536.6" rx="13.8" ry="13.4"/>
		
			<ellipse transform="matrix(0.6454 -0.7639 0.7639 0.6454 -958.3412 952.8791)" class="st0" cx="547.1" cy="1508.6" rx="7.5" ry="11.6"/>
		
			<ellipse transform="matrix(0.6454 -0.7639 0.7639 0.6454 -978.2316 972.2758)" class="st0" cx="558" cy="1539.7" rx="5.2" ry="8"/>
		<path class="st1" d="M432,1562.6l-8.3-4c0.1-1.1,0.1-2.3,0.1-3.4c-0.6-13,14.9-26.9,2.4-38.9c-11.6-11.1-22.9-8.6-35.5-0.6
			c-1.5,1-3.2,1.8-4.8,2.6l-3.9-6.5c-2.6-4.3-8.3-5.7-12.6-3c-4.3,2.6-5.7,8.3-3,12.6l2.1,3.4c-12.2,4.6-21.1,11-14.2,34.3
			c0.8,2.8,1.8,5.3,2.9,7.7l-0.2,0.4l-5.6,11.4c-2.2,4.5-0.3,10,4.2,12.2c4.5,2.2,10,0.3,12.2-4.2l2.1-4.3
			c15.2,10.3,35.7,5.4,46.5-7l7.7,3.7c4.6,2.2,10,0.3,12.2-4.3C438.4,1570.3,436.5,1564.8,432,1562.6z"/>
		<circle class="st0" cx="409.2" cy="1533.8" r="9.9"/>
		<circle class="st0" cx="405.8" cy="1558.9" r="6.6"/>
		<circle class="st0" cx="389.7" cy="1543.5" r="4.1"/>
		<path class="st1" d="M509.3,1440.6c13.5-18.3-18.3-33.2-54.2-36.1l1.6-8.5c0.9-5-2.3-9.7-7.3-10.7c-5-0.9-9.7,2.3-10.7,7.3
			l-2.2,11.4c-29.8,1.1-57.4,11.3-59.8,35.3c-0.1,0.7-0.1,1.5-0.2,2.2l-5.3-0.5c-5-0.5-9.5,3.3-9.9,8.3c-0.5,5,3.3,9.5,8.3,9.9
			l10.1,0.9c0.5,1,1,2,1.7,3c9.1,14.9,39,21.8,54.7,17.1l0.1,0l3.3,7.9c2,4.7,7.3,6.8,12,4.9c4.7-2,6.8-7.3,4.9-12l-4.2-9.9
			c3-2.1,6.2-4,10.6-5.4c10.9-3.6,19.8-7.1,26.9-10.7c0.9,0.6,2,1,3.1,1.2l12.5,2.3c5,0.9,9.7-2.4,10.7-7.3
			C516.9,1446.3,513.9,1441.8,509.3,1440.6z"/>
		<circle class="st0" cx="407.6" cy="1434.1" r="11.8"/>
		<circle class="st0" cx="420.5" cy="1458.5" r="7.7"/>
		<circle class="st0" cx="433.7" cy="1437.9" r="5.8"/>
		<circle class="st0" cx="469.4" cy="1429" r="11.8"/>
	</g>
	<g>
		<path class="st2" d="M2080.6,1633.5h-155.8c-4.6,0-8.3,3.7-8.3,8.3s3.7,8.3,8.3,8.3h155.8c4.6,0,8.3-3.7,8.3-8.3
			S2085.2,1633.5,2080.6,1633.5z"/>
		<path class="st2" d="M2133.9,1633.5H2117c-4.6,0-8.3,3.7-8.3,8.3s3.7,8.3,8.3,8.3h16.9c4.6,0,8.3-3.7,8.3-8.3
			S2138.5,1633.5,2133.9,1633.5z"/>
	</g>
	<g>
		<path class="st2" d="M985.7,937.3H668.8c-4.6,0-8.3,3.7-8.3,8.3c0,4.6,3.7,8.3,8.3,8.3h316.9c4.6,0,8.3-3.7,8.3-8.3
			C994,941,990.3,937.3,985.7,937.3z"/>
		<path class="st2" d="M636.6,937.3h-34.4c-4.6,0-8.3,3.7-8.3,8.3c0,4.6,3.7,8.3,8.3,8.3h34.4c4.6,0,8.3-3.7,8.3-8.3
			C645,941,641.3,937.3,636.6,937.3z"/>
	</g>
	<path class="st1" d="M2248.2,1246.9h-700c-89.4,0-162.5,73.1-162.5,162.5v0c0,89.4,73.1,162.5,162.5,162.5h700
		c89.4,0,162.5-73.1,162.5-162.5v0C2410.7,1320,2337.6,1246.9,2248.2,1246.9z"/>
	<g>
		<rect x="1249.9" y="337.7" class="st2" width="2.6" height="24.8"/>
		<path class="st2" d="M1273,344.8c-1,0-2.1,0.1-3.1,0.4c-1,0.3-2,0.6-2.8,1.1l0.8,2c1.8-0.9,3.5-1.3,4.9-1.3c1.3,0,2.2,0.3,2.8,1
			c0.6,0.7,0.9,1.7,0.9,3v1.1l-3,0.1c-5.6,0.2-8.5,2-8.5,5.6c0,1.7,0.5,2.9,1.5,3.8c1,0.9,2.3,1.3,4.1,1.3c1.3,0,2.4-0.2,3.2-0.6
			c0.9-0.4,1.7-1.1,2.6-2.2h0.1l0.5,2.5h2v-11.9c0-2-0.5-3.5-1.5-4.4C1276.6,345.2,1275.1,344.8,1273,344.8z M1276.5,355.5
			c0,1.6-0.5,2.9-1.4,3.8c-0.9,0.9-2.2,1.4-3.9,1.4c-1,0-1.8-0.3-2.4-0.8c-0.6-0.5-0.9-1.2-0.9-2.2c0-1.2,0.5-2.1,1.4-2.7
			c0.9-0.6,2.4-0.9,4.5-1l2.7-0.1V355.5z"/>
		<path class="st2" d="M1244.1,309.8c0,2.3-0.4,3.9-1.3,4.9c-0.8,1-2.2,1.5-4,1.5c-1.4,0-2.4-0.3-3-1c-0.7-0.7-1-1.8-1-3.2v-11.3
			h-2.7V312c0,2.2,0.5,3.8,1.6,4.8c1.1,1,2.7,1.5,4.8,1.5c1.2,0,2.3-0.2,3.3-0.7c1-0.5,1.7-1.1,2.3-2h0.1l0.4,2.3h2.2v-17.5h-2.6
			V309.8z"/>
		<path class="st2" d="M1305.9,348c0.6,0.7,0.9,1.7,0.9,3.1v11.4h2.6v-11.4c0-2.2-0.5-3.9-1.5-4.9c-1-1-2.5-1.5-4.4-1.5
			c-1.3,0-2.4,0.3-3.4,0.8c-1,0.5-1.7,1.3-2.3,2.2h-0.1c-0.8-2-2.6-3-5.4-3c-1.1,0-2.1,0.2-3.1,0.7c-0.9,0.5-1.6,1.1-2.1,2h-0.1
			l-0.4-2.4h-2.1v17.5h2.6v-9.2c0-2.3,0.4-3.9,1.2-4.9c0.8-1,2-1.5,3.6-1.5c1.3,0,2.2,0.3,2.8,1c0.6,0.7,0.9,1.7,0.9,3.1v11.4h2.6
			v-9.8c0-2,0.4-3.4,1.2-4.4c0.8-0.9,2-1.4,3.7-1.4C1304.4,347,1305.4,347.3,1305.9,348z"/>
		<path class="st2" d="M1241.6,354.2c0,2.3-0.4,3.9-1.3,4.9c-0.8,1-2.2,1.5-4,1.5c-1.4,0-2.4-0.3-3-1c-0.7-0.7-1-1.8-1-3.2v-11.3
			h-2.7v11.4c0,2.2,0.5,3.8,1.6,4.8c1.1,1,2.7,1.5,4.8,1.5c1.2,0,2.3-0.2,3.3-0.7c1-0.5,1.7-1.1,2.3-2h0.1l0.4,2.3h2.2v-17.5h-2.6
			V354.2z"/>
		<path class="st2" d="M1557.4,308.9c0-2.3,0.4-3.9,1.3-4.9c0.8-1,2.2-1.5,4-1.5c1.4,0,2.4,0.3,3,1.1c0.7,0.7,1,1.8,1,3.2v11.3h2.6
			v-11.4c0-2.2-0.5-3.9-1.6-4.9c-1.1-1-2.6-1.5-4.8-1.5c-1.2,0-2.3,0.2-3.3,0.7c-1,0.5-1.7,1.1-2.3,2h-0.1l-0.4-2.4h-2.1v17.5h2.6
			V308.9z"/>
		<path class="st2" d="M1266.1,318.1v-9.8c0-2,0.4-3.4,1.2-4.4c0.8-0.9,2-1.4,3.7-1.4c1.3,0,2.2,0.3,2.8,1c0.6,0.7,0.9,1.7,0.9,3.1
			v11.4h2.7v-11.4c0-2.2-0.5-3.9-1.5-4.9c-1-1-2.5-1.5-4.4-1.5c-1.3,0-2.4,0.3-3.4,0.8c-1,0.5-1.7,1.3-2.3,2.2h-0.1
			c-0.8-2-2.6-3-5.4-3c-1.1,0-2.1,0.2-3.1,0.7c-0.9,0.5-1.6,1.1-2.1,2h-0.1l-0.4-2.4h-2.1v17.5h2.6v-9.2c0-2.3,0.4-3.9,1.2-4.9
			c0.8-1,2-1.5,3.6-1.5c1.3,0,2.2,0.3,2.8,1c0.6,0.7,0.9,1.7,0.9,3.1v11.4H1266.1z"/>
		<path class="st2" d="M1222.7,308.1c-1.5-0.6-2.5-1-3.1-1.3c-0.5-0.3-0.9-0.6-1.2-0.9c-0.2-0.3-0.4-0.7-0.4-1.2
			c0-0.7,0.3-1.2,1-1.6c0.6-0.4,1.6-0.6,2.8-0.6c1.4,0,3,0.4,4.8,1.1l0.9-2.2c-1.8-0.8-3.6-1.1-5.5-1.1c-2,0-3.6,0.4-4.8,1.2
			c-1.2,0.8-1.7,1.9-1.7,3.4c0,0.8,0.2,1.5,0.5,2.1c0.3,0.6,0.8,1.1,1.5,1.5c0.7,0.5,1.8,1,3.5,1.6c1.7,0.7,2.9,1.2,3.5,1.7
			c0.6,0.5,0.9,1.1,0.9,1.7c0,0.9-0.4,1.6-1.1,2c-0.7,0.4-1.8,0.7-3.2,0.7c-0.9,0-1.8-0.1-2.8-0.4c-1-0.2-1.9-0.6-2.7-1v2.5
			c1.3,0.7,3.1,1.1,5.4,1.1c2.2,0,3.9-0.4,5.1-1.3c1.2-0.9,1.8-2.1,1.8-3.8c0-1.2-0.4-2.1-1.1-2.9
			C1226.2,309.7,1224.8,308.9,1222.7,308.1z"/>
		<rect x="1554.4" y="337.7" class="st2" width="2.6" height="24.8"/>
		<path class="st2" d="M1575.7,308.5c0.7,0.5,1.8,1,3.5,1.6c1.7,0.7,2.9,1.2,3.5,1.7c0.6,0.5,0.9,1.1,0.9,1.7c0,0.9-0.4,1.6-1.1,2
			c-0.7,0.4-1.8,0.7-3.2,0.7c-0.9,0-1.8-0.1-2.8-0.4c-1-0.2-1.9-0.6-2.7-1v2.5c1.3,0.7,3.1,1.1,5.4,1.1c2.2,0,3.9-0.4,5.1-1.3
			c1.2-0.9,1.8-2.1,1.8-3.8c0-1.2-0.4-2.1-1.1-2.9c-0.7-0.8-2.1-1.5-4.2-2.3c-1.5-0.6-2.5-1-3.1-1.3c-0.5-0.3-0.9-0.6-1.2-0.9
			c-0.2-0.3-0.4-0.7-0.4-1.2c0-0.7,0.3-1.2,1-1.6c0.6-0.4,1.6-0.6,2.8-0.6c1.4,0,3,0.4,4.8,1.1l0.9-2.2c-1.8-0.8-3.6-1.1-5.5-1.1
			c-2,0-3.6,0.4-4.8,1.2c-1.2,0.8-1.7,1.9-1.7,3.4c0,0.8,0.2,1.5,0.5,2.1C1574.5,307.5,1575,308,1575.7,308.5z"/>
		<rect x="1258.2" y="337.7" class="st2" width="2.6" height="24.8"/>
		<path class="st2" d="M1348.1,383c-0.4,0-0.8,0.1-1.1,0.4c-0.3,0.3-0.4,0.7-0.4,1.3c0,0.6,0.1,1,0.4,1.3c0.3,0.3,0.7,0.4,1.1,0.4
			c0.4,0,0.8-0.1,1.1-0.4c0.3-0.3,0.5-0.7,0.5-1.3c0-0.6-0.2-1-0.5-1.3C1348.9,383.2,1348.5,383,1348.1,383z"/>
		<path class="st2" d="M1354.3,309.3c0-2.8-0.7-5-2.2-6.6c-1.4-1.6-3.4-2.4-5.8-2.4c-2.5,0-4.5,0.8-5.9,2.4
			c-1.4,1.6-2.1,3.8-2.1,6.7c0,1.8,0.3,3.4,1,4.8c0.7,1.4,1.6,2.4,2.8,3.2c1.2,0.7,2.6,1.1,4.2,1.1c2.5,0,4.5-0.8,5.9-2.4
			C1353.6,314.4,1354.3,312.2,1354.3,309.3z M1350.2,314.4c-0.9,1.2-2.2,1.7-3.9,1.7c-1.7,0-3-0.6-3.9-1.8c-0.9-1.2-1.3-2.9-1.3-5.1
			c0-2.3,0.4-4,1.3-5.1c0.9-1.1,2.2-1.7,3.9-1.7c1.8,0,3.1,0.6,4,1.7c0.9,1.2,1.3,2.8,1.3,5.1
			C1351.5,311.6,1351.1,313.3,1350.2,314.4z"/>
		<rect x="1346.7" y="389.5" class="st2" width="2.6" height="17.5"/>
		<path class="st2" d="M1352.9,353.2c0-1.7,0.5-3.1,1.5-4.3c1-1.1,2.2-1.7,3.6-1.7c0.6,0,1.2,0.1,1.9,0.2l0.4-2.5
			c-0.6-0.1-1.3-0.2-2.1-0.2c-1.1,0-2.1,0.3-3,0.9c-0.9,0.6-1.7,1.5-2.3,2.6h-0.1l-0.3-3.2h-2.2v17.5h2.7V353.2z"/>
		<rect x="1375" y="389.5" class="st2" width="2.6" height="17.5"/>
		<path class="st2" d="M1368.6,302.9l0.4-2.5c-0.6-0.1-1.3-0.2-2.1-0.2c-1.1,0-2.1,0.3-3,0.9c-0.9,0.6-1.7,1.5-2.3,2.6h-0.1
			l-0.3-3.2h-2.2v17.5h2.6v-9.4c0-1.7,0.5-3.1,1.5-4.3c1-1.1,2.2-1.7,3.6-1.7C1367.3,302.7,1367.9,302.8,1368.6,302.9z"/>
		<path class="st2" d="M1360.6,405.1c-0.9,0-1.6-0.3-2.1-0.8c-0.5-0.6-0.8-1.4-0.8-2.4v-10.3h5.1v-2.1h-5.1v-4h-1.5l-1.1,3.7
			l-2.5,1.1v1.3h2.5V402c0,3.6,1.7,5.3,5.1,5.3c0.4,0,1,0,1.5-0.1c0.6-0.1,1-0.2,1.3-0.3v-2c-0.3,0.1-0.6,0.1-1,0.2
			C1361.6,405.1,1361.1,405.1,1360.6,405.1z"/>
		<path class="st2" d="M1310.3,401.1c-0.6,1.8-1,2.9-1.1,3.5h-0.1c-0.1-0.7-0.6-2.3-1.5-4.7l-3.8-10.4h-2.8l6.6,17.5h3.1l6.6-17.5
			h-2.8C1312.3,395.5,1311,399.3,1310.3,401.1z"/>
		<path class="st2" d="M1326.9,389.2c-2.3,0-4.2,0.8-5.6,2.5c-1.4,1.7-2.1,3.9-2.1,6.7c0,2.8,0.7,5,2.2,6.6c1.5,1.6,3.5,2.4,6.1,2.4
			c1.2,0,2.2-0.1,3-0.3c0.8-0.2,1.7-0.5,2.7-0.9v-2.4c-1.8,0.8-3.7,1.2-5.6,1.2c-1.8,0-3.2-0.5-4.2-1.6c-1-1.1-1.5-2.6-1.6-4.7h12
			v-1.7c0-2.4-0.6-4.3-1.9-5.7C1330.8,389.9,1329,389.2,1326.9,389.2z M1322,396.6c0.1-1.6,0.6-2.9,1.5-3.8c0.8-0.9,1.9-1.4,3.4-1.4
			c1.4,0,2.4,0.4,3.2,1.3c0.7,0.9,1.1,2.2,1.1,3.8H1322z"/>
		<path class="st2" d="M1643.1,318.4c1.2,0,2.2-0.1,3-0.3c0.8-0.2,1.7-0.5,2.7-0.9v-2.4c-1.8,0.8-3.7,1.2-5.6,1.2
			c-1.8,0-3.2-0.5-4.2-1.6c-1-1.1-1.5-2.6-1.5-4.7h12v-1.7c0-2.4-0.6-4.3-1.9-5.7c-1.3-1.4-3-2.2-5.2-2.2c-2.3,0-4.2,0.8-5.6,2.5
			c-1.4,1.7-2.1,3.9-2.1,6.7c0,2.8,0.7,5,2.2,6.6C1638.5,317.6,1640.5,318.4,1643.1,318.4z M1639,303.9c0.8-0.9,1.9-1.4,3.4-1.4
			c1.4,0,2.4,0.4,3.2,1.3c0.7,0.9,1.1,2.2,1.1,3.8h-9.1C1637.7,306,1638.2,304.8,1639,303.9z"/>
		<rect x="1338.5" y="382.2" class="st2" width="2.6" height="24.8"/>
		<path class="st2" d="M1654.2,313c0,3.6,1.7,5.3,5.1,5.3c0.4,0,1,0,1.5-0.1c0.6-0.1,1-0.2,1.3-0.3v-2c-0.3,0.1-0.6,0.1-1,0.2
			c-0.4,0.1-0.9,0.1-1.4,0.1c-0.9,0-1.6-0.3-2.1-0.8c-0.5-0.6-0.8-1.4-0.8-2.4v-10.3h5.1v-2.1h-5.1v-4h-1.5l-1.1,3.7l-2.5,1.1v1.3
			h2.5V313z"/>
		<path class="st2" d="M1337.6,344.7c-2.5,0-4.5,0.8-5.9,2.4c-1.4,1.6-2.1,3.8-2.1,6.7c0,1.8,0.3,3.4,1,4.8c0.7,1.4,1.6,2.4,2.8,3.2
			c1.2,0.7,2.6,1.1,4.2,1.1c2.5,0,4.5-0.8,5.9-2.4c1.4-1.6,2.1-3.8,2.1-6.7c0-2.8-0.7-5-2.2-6.6C1342,345.5,1340,344.7,1337.6,344.7
			z M1341.5,358.9c-0.9,1.2-2.2,1.7-3.9,1.7c-1.7,0-3-0.6-3.9-1.8c-0.9-1.2-1.3-2.9-1.3-5.1c0-2.3,0.4-4,1.3-5.1
			c0.9-1.1,2.2-1.7,3.9-1.7c1.8,0,3.1,0.6,4,1.7c0.9,1.2,1.3,2.8,1.3,5.1C1342.8,356,1342.4,357.7,1341.5,358.9z"/>
		<path class="st2" d="M1672.4,347.1c-1.3,1.6-1.9,3.8-1.9,6.7c0,2.9,0.6,5.1,1.9,6.7c1.3,1.6,3.1,2.3,5.3,2.3
			c2.4,0,4.3-0.9,5.5-2.7h0.1l0.4,2.3h2.1v-24.8h-2.6v7.1l0.1,1.2l0.1,1.3h-0.2c-1.3-1.7-3.1-2.6-5.5-2.6
			C1675.4,344.7,1673.7,345.5,1672.4,347.1z M1682,348.5c0.8,1.1,1.2,2.8,1.2,5.3v0.6c0,2.2-0.4,3.8-1.2,4.8c-0.8,1-2.1,1.5-3.9,1.5
			c-1.6,0-2.8-0.6-3.6-1.7c-0.8-1.1-1.2-2.8-1.2-5c0-2.2,0.4-3.9,1.2-5.1c0.8-1.2,2-1.8,3.6-1.8C1679.8,347,1681.1,347.5,1682,348.5
			z"/>
		<path class="st2" d="M1671.7,318.4c1.2,0,2.3-0.2,3.3-0.7c1-0.5,1.7-1.1,2.3-2h0.1l0.4,2.3h2.2v-17.5h-2.6v9.2
			c0,2.3-0.4,3.9-1.3,4.9c-0.8,1-2.2,1.5-4,1.5c-1.4,0-2.4-0.3-3-1c-0.7-0.7-1-1.8-1-3.2v-11.3h-2.7V312c0,2.2,0.5,3.8,1.6,4.8
			C1668,317.9,1669.6,318.4,1671.7,318.4z"/>
		<path class="st2" d="M1525.9,345.1v11.4c0,2.2,0.5,3.8,1.6,4.8c1.1,1,2.7,1.5,4.8,1.5c1.2,0,2.3-0.2,3.3-0.7c1-0.5,1.7-1.1,2.3-2
			h0.1l0.4,2.3h2.2v-17.5h-2.6v9.2c0,2.3-0.4,3.9-1.3,4.9c-0.8,1-2.2,1.5-4,1.5c-1.4,0-2.4-0.3-3-1c-0.7-0.7-1-1.8-1-3.2v-11.3
			H1525.9z"/>
		<path class="st2" d="M1105.9,318.4c2.5,0,4.5-0.8,5.9-2.4c1.4-1.6,2.1-3.8,2.1-6.7c0-2.8-0.7-5-2.2-6.6c-1.4-1.6-3.4-2.4-5.8-2.4
			c-2.5,0-4.5,0.8-5.9,2.4c-1.4,1.6-2.1,3.8-2.1,6.7c0,1.8,0.3,3.4,1,4.8c0.7,1.4,1.6,2.4,2.8,3.2
			C1103,318,1104.3,318.4,1105.9,318.4z M1102,304.2c0.9-1.1,2.2-1.7,3.9-1.7c1.8,0,3.1,0.6,4,1.7c0.9,1.2,1.3,2.8,1.3,5.1
			c0,2.2-0.4,3.9-1.3,5.1c-0.9,1.2-2.2,1.7-3.9,1.7c-1.7,0-3-0.6-3.9-1.8c-0.9-1.2-1.3-2.9-1.3-5.1
			C1100.7,307.1,1101.1,305.4,1102,304.2z"/>
		<path class="st2" d="M1126.8,345.7c-0.9,0.6-1.7,1.5-2.3,2.6h-0.1l-0.3-3.2h-2.2v17.5h2.7v-9.4c0-1.7,0.5-3.1,1.5-4.3
			c1-1.1,2.2-1.7,3.6-1.7c0.6,0,1.2,0.1,1.9,0.2l0.4-2.5c-0.6-0.1-1.3-0.2-2.1-0.2C1128.7,344.7,1127.7,345,1126.8,345.7z"/>
		<path class="st2" d="M1090.2,344.8c-1,0-2.1,0.1-3.1,0.4c-1,0.3-2,0.6-2.8,1.1l0.8,2c1.8-0.9,3.5-1.3,4.9-1.3c1.3,0,2.2,0.3,2.8,1
			c0.6,0.7,0.9,1.7,0.9,3v1.1l-3,0.1c-5.6,0.2-8.5,2-8.5,5.6c0,1.7,0.5,2.9,1.5,3.8c1,0.9,2.3,1.3,4.1,1.3c1.3,0,2.4-0.2,3.2-0.6
			c0.9-0.4,1.7-1.1,2.6-2.2h0.1l0.5,2.5h2v-11.9c0-2-0.5-3.5-1.5-4.4C1093.8,345.2,1092.3,344.8,1090.2,344.8z M1093.7,355.5
			c0,1.6-0.5,2.9-1.4,3.8c-0.9,0.9-2.2,1.4-3.9,1.4c-1,0-1.8-0.3-2.4-0.8c-0.6-0.5-0.9-1.2-0.9-2.2c0-1.2,0.5-2.1,1.4-2.7
			c0.9-0.6,2.4-0.9,4.5-1l2.7-0.1V355.5z"/>
		<path class="st2" d="M1113.6,354.2c0,2.3-0.4,3.9-1.3,4.9c-0.8,1-2.2,1.5-4,1.5c-1.4,0-2.4-0.3-3-1c-0.7-0.7-1-1.8-1-3.2v-11.3
			h-2.7v11.4c0,2.2,0.5,3.8,1.6,4.8c1.1,1,2.7,1.5,4.8,1.5c1.2,0,2.3-0.2,3.3-0.7c1-0.5,1.7-1.1,2.3-2h0.1l0.4,2.3h2.2v-17.5h-2.6
			V354.2z"/>
		<path class="st2" d="M1126.4,302.7c0.6,0,1.2,0.1,1.9,0.2l0.4-2.5c-0.6-0.1-1.3-0.2-2.1-0.2c-1.1,0-2.1,0.3-3,0.9
			c-0.9,0.6-1.7,1.5-2.3,2.6h-0.1l-0.3-3.2h-2.2v17.5h2.7v-9.4c0-1.7,0.5-3.1,1.5-4.3C1123.8,303.3,1125,302.7,1126.4,302.7z"/>
		<path class="st2" d="M1445.4,308.9c0-2.3,0.4-3.9,1.2-4.9c0.8-1,2-1.5,3.6-1.5c1.3,0,2.2,0.3,2.8,1c0.6,0.7,0.9,1.7,0.9,3.1v11.4
			h2.6v-9.8c0-2,0.4-3.4,1.2-4.4c0.8-0.9,2-1.4,3.7-1.4c1.3,0,2.2,0.3,2.8,1c0.6,0.7,0.9,1.7,0.9,3.1v11.4h2.6v-11.4
			c0-2.2-0.5-3.9-1.5-4.9c-1-1-2.5-1.5-4.4-1.5c-1.3,0-2.4,0.3-3.4,0.8c-1,0.5-1.7,1.3-2.3,2.2h-0.1c-0.8-2-2.6-3-5.4-3
			c-1.1,0-2.1,0.2-3.1,0.7c-0.9,0.5-1.6,1.1-2.1,2h-0.1l-0.4-2.4h-2.1v17.5h2.6V308.9z"/>
		<rect x="1330.9" y="293.3" class="st2" width="2.6" height="24.8"/>
		<path class="st2" d="M1428.8,318.4c1.3,0,2.4-0.2,3.2-0.6c0.9-0.4,1.7-1.1,2.6-2.2h0.1l0.5,2.5h2v-11.9c0-2-0.5-3.5-1.5-4.4
			c-1-0.9-2.5-1.4-4.6-1.4c-1,0-2.1,0.1-3.1,0.4c-1,0.3-2,0.6-2.8,1.1l0.8,2c1.8-0.9,3.5-1.3,4.9-1.3c1.3,0,2.2,0.3,2.8,1
			c0.6,0.7,0.9,1.7,0.9,3v1.1l-3,0.1c-5.6,0.2-8.5,2-8.5,5.6c0,1.7,0.5,2.9,1.5,3.8C1425.7,317.9,1427.1,318.4,1428.8,318.4z
			 M1427.4,310.6c0.9-0.6,2.4-0.9,4.5-1l2.7-0.1v1.6c0,1.6-0.5,2.9-1.4,3.8c-0.9,0.9-2.2,1.4-3.9,1.4c-1,0-1.8-0.3-2.4-0.8
			c-0.6-0.5-0.9-1.2-0.9-2.2C1426,312.1,1426.5,311.1,1427.4,310.6z"/>
		<path class="st2" d="M1297.5,318.4c2.4,0,4.3-0.9,5.5-2.7h0.1l0.4,2.3h2.1v-24.8h-2.6v7.1l0.1,1.2l0.1,1.3h-0.2
			c-1.3-1.7-3.1-2.6-5.5-2.6c-2.3,0-4.1,0.8-5.3,2.4c-1.3,1.6-1.9,3.8-1.9,6.7c0,2.9,0.6,5.1,1.9,6.7
			C1293.4,317.6,1295.2,318.4,1297.5,318.4z M1294.2,304.3c0.8-1.2,2-1.8,3.6-1.8c1.8,0,3.1,0.5,4,1.6c0.8,1.1,1.2,2.8,1.2,5.3v0.6
			c0,2.2-0.4,3.8-1.2,4.8c-0.8,1-2.1,1.5-3.9,1.5c-1.6,0-2.8-0.6-3.6-1.7c-0.8-1.1-1.2-2.8-1.2-5
			C1293,307.2,1293.4,305.5,1294.2,304.3z"/>
		<path class="st2" d="M1322,347.1c0.5,0,1.1,0.1,1.8,0.2c0.7,0.2,1.3,0.3,1.9,0.6l0.8-2.2c-0.5-0.3-1.1-0.5-2-0.6
			c-0.8-0.2-1.7-0.3-2.5-0.3c-2.6,0-4.6,0.8-6,2.4c-1.4,1.6-2.1,3.9-2.1,6.8c0,2.8,0.7,5.1,2.1,6.6c1.4,1.6,3.3,2.3,5.9,2.3
			c1.8,0,3.2-0.3,4.4-0.9v-2.4c-1.5,0.6-3,0.9-4.5,0.9c-1.7,0-3-0.6-3.9-1.7c-0.9-1.1-1.3-2.8-1.3-4.9
			C1316.7,349.4,1318.5,347.1,1322,347.1z"/>
		<path class="st2" d="M1189.8,297.6c0.4,0,0.8-0.1,1.1-0.4c0.3-0.3,0.5-0.7,0.5-1.3c0-0.6-0.2-1-0.5-1.3c-0.3-0.3-0.7-0.4-1.1-0.4
			c-0.4,0-0.8,0.1-1.1,0.4c-0.3,0.3-0.4,0.7-0.4,1.3c0,0.6,0.1,1,0.4,1.3C1189,297.5,1189.4,297.6,1189.8,297.6z"/>
		<rect x="1188.5" y="300.6" class="st2" width="2.6" height="17.5"/>
		<polygon class="st2" points="1095.4,315.6 1085.1,315.6 1085.1,294.8 1082.4,294.8 1082.4,318.1 1095.4,318.1 		"/>
		<path class="st2" d="M1376.3,383c-0.4,0-0.8,0.1-1.1,0.4c-0.3,0.3-0.4,0.7-0.4,1.3c0,0.6,0.1,1,0.4,1.3c0.3,0.3,0.7,0.4,1.1,0.4
			c0.4,0,0.8-0.1,1.1-0.4c0.3-0.3,0.5-0.7,0.5-1.3c0-0.6-0.2-1-0.5-1.3C1377.1,383.2,1376.8,383,1376.3,383z"/>
		<path class="st2" d="M1066.1,358.4h-0.1l-7.4-19.2h-4.1v23.3h2.5v-14.8c0-2.3-0.1-4.2-0.2-5.8h0.1l7.9,20.7h2.2l8-20.6h0.1
			c-0.1,2-0.2,3.9-0.2,5.6v15h2.7v-23.3h-4L1066.1,358.4z"/>
		<rect x="1135.2" y="345.1" class="st2" width="2.6" height="17.5"/>
		<path class="st2" d="M1189.7,344.7c-2.3,0-4.2,0.8-5.6,2.5c-1.4,1.7-2.1,3.9-2.1,6.7c0,2.8,0.7,5,2.2,6.6c1.5,1.6,3.5,2.4,6.1,2.4
			c1.2,0,2.2-0.1,3-0.3c0.8-0.2,1.7-0.5,2.7-0.9v-2.4c-1.8,0.8-3.7,1.2-5.6,1.2c-1.8,0-3.2-0.5-4.2-1.6c-1-1.1-1.5-2.6-1.5-4.7h12
			v-1.7c0-2.4-0.6-4.3-1.9-5.7C1193.7,345.5,1191.9,344.7,1189.7,344.7z M1184.9,352.1c0.1-1.6,0.6-2.9,1.5-3.8
			c0.8-0.9,1.9-1.4,3.4-1.4c1.4,0,2.4,0.4,3.2,1.3c0.7,0.9,1.1,2.2,1.1,3.8H1184.9z"/>
		<path class="st2" d="M1504.8,318.3c0.5-1.4,0.9-2.6,1.2-3.7l-0.2-0.4h-2.9c-0.1,1-0.4,2.3-0.7,3.9c-0.3,1.6-0.7,3-0.9,4.1h2
			C1503.7,321.1,1504.2,319.8,1504.8,318.3z"/>
		<path class="st2" d="M1517.8,358.7h-0.1l-12.7-19.5h-3.1v23.3h2.5v-13.2c0-1.9-0.1-4-0.3-6.3h0.1l12.7,19.6h3.1v-23.3h-2.5v13.4
			c0,0.7,0,1.8,0.1,3.3C1517.7,357.5,1517.8,358.4,1517.8,358.7z"/>
		<path class="st2" d="M1213.1,344.8l0.1,1.2l0.1,1.3h-0.2c-1.3-1.7-3.1-2.6-5.5-2.6c-2.3,0-4.1,0.8-5.3,2.4
			c-1.3,1.6-1.9,3.8-1.9,6.7c0,2.9,0.6,5.1,1.9,6.7c1.3,1.6,3.1,2.3,5.3,2.3c2.4,0,4.3-0.9,5.5-2.7h0.1l0.4,2.3h2.1v-24.8h-2.6
			V344.8z M1213.1,354.4c0,2.2-0.4,3.8-1.2,4.8c-0.8,1-2.1,1.5-3.9,1.5c-1.6,0-2.8-0.6-3.6-1.7c-0.8-1.1-1.2-2.8-1.2-5
			c0-2.2,0.4-3.9,1.2-5.1c0.8-1.2,2-1.8,3.6-1.8c1.8,0,3.1,0.5,4,1.6c0.8,1.1,1.2,2.8,1.2,5.3V354.4z"/>
		<path class="st2" d="M1204.9,318.4c2.3,0,4.1-0.8,5.3-2.4c1.3-1.6,1.9-3.8,1.9-6.7c0-2.9-0.6-5.1-1.9-6.7
			c-1.3-1.6-3.1-2.4-5.4-2.4c-1.2,0-2.2,0.2-3.1,0.6c-0.9,0.4-1.7,1.1-2.4,2.1h-0.1l-0.4-2.4h-2.1v25.3h2.6v-7.2
			c0-0.9-0.1-1.9-0.2-2.9h0.2c0.6,0.9,1.4,1.5,2.4,1.9C1202.7,318.2,1203.7,318.4,1204.9,318.4z M1199.4,309.3v-0.6
			c0-2.2,0.4-3.7,1.2-4.7c0.8-1,2.1-1.5,3.9-1.5c1.5,0,2.8,0.6,3.6,1.7c0.9,1.2,1.3,2.8,1.3,5c0,2.1-0.4,3.8-1.3,5.1
			c-0.9,1.2-2,1.8-3.5,1.8c-1.8,0-3.1-0.5-3.9-1.6C1199.8,313.5,1199.4,311.8,1199.4,309.3z"/>
		<path class="st2" d="M1484.4,359.2c-0.3,0.4-0.5,0.9-0.5,1.6c0,0.8,0.2,1.3,0.5,1.6c0.4,0.3,0.8,0.5,1.3,0.5
			c0.6,0,1.1-0.2,1.4-0.6c0.3-0.4,0.5-0.9,0.5-1.6c0-0.7-0.2-1.2-0.5-1.6c-0.3-0.4-0.8-0.5-1.4-0.5
			C1485.2,358.7,1484.8,358.9,1484.4,359.2z"/>
		<path class="st2" d="M1526.4,318.4c1.8,0,3.2-0.3,4.4-0.9v-2.4c-1.5,0.6-3,0.9-4.5,0.9c-1.7,0-3-0.6-3.9-1.7
			c-0.9-1.1-1.3-2.8-1.3-4.9c0-4.5,1.8-6.8,5.3-6.8c0.5,0,1.1,0.1,1.8,0.2c0.7,0.2,1.3,0.3,1.9,0.6l0.8-2.2c-0.5-0.3-1.1-0.5-2-0.6
			c-0.8-0.2-1.7-0.3-2.5-0.3c-2.6,0-4.6,0.8-6,2.4c-1.4,1.6-2.1,3.9-2.1,6.8c0,2.8,0.7,5,2.1,6.6
			C1521.9,317.6,1523.9,318.4,1526.4,318.4z"/>
		<path class="st2" d="M1136.5,338.6c-0.4,0-0.8,0.1-1.1,0.4c-0.3,0.3-0.4,0.7-0.4,1.3c0,0.6,0.1,1,0.4,1.3c0.3,0.3,0.7,0.4,1.1,0.4
			c0.4,0,0.8-0.1,1.1-0.4c0.3-0.3,0.5-0.7,0.5-1.3c0-0.6-0.2-1-0.5-1.3C1137.3,338.7,1136.9,338.6,1136.5,338.6z"/>
		<path class="st2" d="M1473,357.5c0,3.6,1.7,5.3,5.1,5.3c0.4,0,1,0,1.5-0.1c0.6-0.1,1-0.2,1.3-0.3v-2c-0.3,0.1-0.6,0.1-1,0.2
			c-0.4,0.1-0.9,0.1-1.4,0.1c-0.9,0-1.6-0.3-2.1-0.8c-0.5-0.6-0.8-1.4-0.8-2.4v-10.3h5.1v-2.1h-5.1v-4h-1.5l-1.1,3.7l-2.5,1.1v1.3
			h2.5V357.5z"/>
		<path class="st2" d="M1314,317.3c1.2,0.7,2.6,1.1,4.2,1.1c2.5,0,4.5-0.8,5.9-2.4c1.4-1.6,2.1-3.8,2.1-6.7c0-2.8-0.7-5-2.2-6.6
			c-1.4-1.6-3.4-2.4-5.8-2.4c-2.5,0-4.5,0.8-5.9,2.4c-1.4,1.6-2.1,3.8-2.1,6.7c0,1.8,0.3,3.4,1,4.8
			C1311.9,315.5,1312.8,316.6,1314,317.3z M1314.3,304.2c0.9-1.1,2.2-1.7,3.9-1.7c1.8,0,3.1,0.6,4,1.7c0.9,1.2,1.3,2.8,1.3,5.1
			c0,2.2-0.4,3.9-1.3,5.1c-0.9,1.2-2.2,1.7-3.9,1.7c-1.7,0-3-0.6-3.9-1.8c-0.9-1.2-1.3-2.9-1.3-5.1
			C1313,307.1,1313.4,305.4,1314.3,304.2z"/>
		<path class="st2" d="M1173.4,352.6c-1.5-0.6-2.5-1-3.1-1.3c-0.5-0.3-0.9-0.6-1.2-0.9c-0.2-0.3-0.4-0.7-0.4-1.2
			c0-0.7,0.3-1.2,1-1.6c0.6-0.4,1.6-0.6,2.8-0.6c1.4,0,3,0.4,4.8,1.1l0.9-2.2c-1.8-0.8-3.6-1.1-5.5-1.1c-2,0-3.6,0.4-4.8,1.2
			c-1.2,0.8-1.7,1.9-1.7,3.4c0,0.8,0.2,1.5,0.5,2.1c0.3,0.6,0.8,1.1,1.5,1.5c0.7,0.5,1.8,1,3.5,1.6c1.7,0.7,2.9,1.2,3.4,1.7
			c0.6,0.5,0.9,1.1,0.9,1.7c0,0.9-0.4,1.6-1.1,2c-0.7,0.4-1.8,0.7-3.2,0.7c-0.9,0-1.8-0.1-2.8-0.4c-1-0.2-1.9-0.6-2.7-1v2.5
			c1.3,0.7,3.1,1.1,5.4,1.1c2.2,0,3.9-0.4,5.1-1.3c1.2-0.9,1.8-2.1,1.8-3.8c0-1.2-0.4-2.1-1.1-2.9
			C1176.9,354.1,1175.5,353.4,1173.4,352.6z"/>
		<path class="st2" d="M1144.4,314.9c-1.8,0.8-3.7,1.2-5.6,1.2c-1.8,0-3.2-0.5-4.2-1.6c-1-1.1-1.5-2.6-1.5-4.7h12v-1.7
			c0-2.4-0.6-4.3-1.9-5.7c-1.3-1.4-3-2.2-5.2-2.2c-2.3,0-4.2,0.8-5.6,2.5c-1.4,1.7-2.1,3.9-2.1,6.7c0,2.8,0.7,5,2.2,6.6
			c1.5,1.6,3.5,2.4,6.1,2.4c1.2,0,2.2-0.1,3-0.3c0.8-0.2,1.7-0.5,2.7-0.9V314.9z M1134.6,303.9c0.8-0.9,1.9-1.4,3.4-1.4
			c1.4,0,2.4,0.4,3.2,1.3c0.7,0.9,1.1,2.2,1.1,3.8h-9.1C1133.3,306,1133.8,304.8,1134.6,303.9z"/>
		<path class="st2" d="M1480.5,318.4c1.2,0,2.2-0.1,3-0.3c0.8-0.2,1.7-0.5,2.7-0.9v-2.4c-1.8,0.8-3.7,1.2-5.6,1.2
			c-1.8,0-3.2-0.5-4.2-1.6c-1-1.1-1.5-2.6-1.5-4.7h12v-1.7c0-2.4-0.6-4.3-1.9-5.7c-1.3-1.4-3-2.2-5.2-2.2c-2.3,0-4.2,0.8-5.6,2.5
			c-1.4,1.7-2.1,3.9-2.1,6.7c0,2.8,0.7,5,2.2,6.6C1475.9,317.6,1477.9,318.4,1480.5,318.4z M1476.4,303.9c0.8-0.9,1.9-1.4,3.4-1.4
			c1.4,0,2.4,0.4,3.2,1.3c0.7,0.9,1.1,2.2,1.1,3.8h-9.1C1475.1,306,1475.6,304.8,1476.4,303.9z"/>
		<path class="st2" d="M1171,303.6c0.6,0.7,0.9,1.7,0.9,3.1v11.4h2.6v-11.4c0-2.2-0.5-3.9-1.5-4.9c-1-1-2.5-1.5-4.4-1.5
			c-1.3,0-2.4,0.3-3.4,0.8c-1,0.5-1.7,1.3-2.3,2.2h-0.1c-0.8-2-2.6-3-5.4-3c-1.1,0-2.1,0.2-3.1,0.7c-0.9,0.5-1.6,1.1-2.1,2h-0.1
			l-0.4-2.4h-2.1v17.5h2.6v-9.2c0-2.3,0.4-3.9,1.2-4.9c0.8-1,2-1.5,3.6-1.5c1.3,0,2.2,0.3,2.8,1c0.6,0.7,0.9,1.7,0.9,3.1v11.4h2.6
			v-9.8c0-2,0.4-3.4,1.2-4.4c0.8-0.9,2-1.4,3.7-1.4C1169.5,302.5,1170.4,302.9,1171,303.6z"/>
		<path class="st2" d="M1149.4,352.6c-1.5-0.6-2.5-1-3.1-1.3c-0.5-0.3-0.9-0.6-1.2-0.9c-0.2-0.3-0.4-0.7-0.4-1.2
			c0-0.7,0.3-1.2,1-1.6c0.6-0.4,1.6-0.6,2.8-0.6c1.4,0,3,0.4,4.8,1.1l0.9-2.2c-1.8-0.8-3.6-1.1-5.5-1.1c-2,0-3.6,0.4-4.8,1.2
			c-1.2,0.8-1.7,1.9-1.7,3.4c0,0.8,0.2,1.5,0.5,2.1c0.3,0.6,0.8,1.1,1.5,1.5c0.7,0.5,1.8,1,3.5,1.6c1.7,0.7,2.9,1.2,3.5,1.7
			c0.6,0.5,0.9,1.1,0.9,1.7c0,0.9-0.4,1.6-1.1,2c-0.7,0.4-1.8,0.7-3.2,0.7c-0.9,0-1.8-0.1-2.8-0.4c-1-0.2-1.9-0.6-2.7-1v2.5
			c1.3,0.7,3.1,1.1,5.4,1.1c2.2,0,3.9-0.4,5.1-1.3c1.2-0.9,1.8-2.1,1.8-3.8c0-1.2-0.4-2.1-1.1-2.9
			C1152.9,354.1,1151.5,353.4,1149.4,352.6z"/>
		<path class="st2" d="M1615.7,302.6c0.5,0,1.1,0.1,1.8,0.2c0.7,0.2,1.3,0.3,1.9,0.6l0.8-2.2c-0.5-0.3-1.1-0.5-2-0.6
			c-0.8-0.2-1.7-0.3-2.5-0.3c-2.6,0-4.6,0.8-6,2.4c-1.4,1.6-2.1,3.9-2.1,6.8c0,2.8,0.7,5,2.1,6.6c1.4,1.6,3.3,2.3,5.9,2.3
			c1.8,0,3.2-0.3,4.4-0.9v-2.4c-1.5,0.6-3,0.9-4.5,0.9c-1.7,0-3-0.6-3.9-1.7c-0.9-1.1-1.3-2.8-1.3-4.9
			C1610.4,304.9,1612.2,302.6,1615.7,302.6z"/>
		<rect x="1773.8" y="300.6" class="st2" width="2.6" height="17.5"/>
		<path class="st2" d="M1814.5,297.6c0.4,0,0.8-0.1,1.1-0.4c0.3-0.3,0.5-0.7,0.5-1.3c0-0.6-0.2-1-0.5-1.3c-0.3-0.3-0.7-0.4-1.1-0.4
			c-0.4,0-0.8,0.1-1.1,0.4c-0.3,0.3-0.4,0.7-0.4,1.3c0,0.6,0.1,1,0.4,1.3C1813.7,297.5,1814.1,297.6,1814.5,297.6z"/>
		<path class="st2" d="M1746.9,297.6c0.4,0,0.8-0.1,1.1-0.4c0.3-0.3,0.5-0.7,0.5-1.3c0-0.6-0.2-1-0.5-1.3c-0.3-0.3-0.7-0.4-1.1-0.4
			c-0.4,0-0.8,0.1-1.1,0.4c-0.3,0.3-0.4,0.7-0.4,1.3c0,0.6,0.1,1,0.4,1.3C1746.1,297.5,1746.5,297.6,1746.9,297.6z"/>
		<rect x="1813.2" y="300.6" class="st2" width="2.6" height="17.5"/>
		<path class="st2" d="M1775.2,297.6c0.4,0,0.8-0.1,1.1-0.4c0.3-0.3,0.5-0.7,0.5-1.3c0-0.6-0.2-1-0.5-1.3c-0.3-0.3-0.7-0.4-1.1-0.4
			c-0.4,0-0.8,0.1-1.1,0.4c-0.3,0.3-0.4,0.7-0.4,1.3c0,0.6,0.1,1,0.4,1.3C1774.4,297.5,1774.7,297.6,1775.2,297.6z"/>
		<path class="st2" d="M1780.8,344.7c-1.3,0-2.4,0.3-3.4,0.8c-1,0.5-1.7,1.3-2.3,2.2h-0.1c-0.8-2-2.6-3-5.4-3
			c-1.1,0-2.1,0.2-3.1,0.7c-0.9,0.5-1.6,1.1-2.1,2h-0.1l-0.4-2.4h-2.1v17.5h2.6v-9.2c0-2.3,0.4-3.9,1.2-4.9c0.8-1,2-1.5,3.6-1.5
			c1.3,0,2.2,0.3,2.8,1c0.6,0.7,0.9,1.7,0.9,3.1v11.4h2.6v-9.8c0-2,0.4-3.4,1.2-4.4c0.8-0.9,2-1.4,3.7-1.4c1.3,0,2.2,0.3,2.8,1
			c0.6,0.7,0.9,1.7,0.9,3.1v11.4h2.7v-11.4c0-2.2-0.5-3.9-1.5-4.9C1784.3,345.2,1782.8,344.7,1780.8,344.7z"/>
		<rect x="1745.6" y="300.6" class="st2" width="2.6" height="17.5"/>
		<path class="st2" d="M1767.3,316c1.3-1.6,1.9-3.8,1.9-6.7c0-2.9-0.6-5.1-1.9-6.7c-1.3-1.6-3.1-2.4-5.4-2.4c-1.2,0-2.2,0.2-3.1,0.6
			c-0.9,0.4-1.7,1.1-2.4,2.1h-0.1l-0.4-2.4h-2.2v25.3h2.6v-7.2c0-0.9-0.1-1.9-0.2-2.9h0.2c0.6,0.9,1.4,1.5,2.4,1.9
			c0.9,0.4,2,0.6,3.1,0.6C1764.2,318.4,1766,317.6,1767.3,316z M1757.7,314.6c-0.8-1.1-1.2-2.8-1.2-5.3v-0.6c0-2.2,0.4-3.7,1.2-4.7
			c0.8-1,2.1-1.5,3.9-1.5c1.6,0,2.8,0.6,3.6,1.7c0.9,1.2,1.3,2.8,1.3,5c0,2.1-0.4,3.8-1.3,5.1c-0.9,1.2-2,1.8-3.5,1.8
			C1759.8,316.2,1758.5,315.6,1757.7,314.6z"/>
		<path class="st2" d="M1750.2,344.7c-2.3,0-4.2,0.8-5.6,2.5c-1.4,1.7-2.1,3.9-2.1,6.7c0,2.8,0.7,5,2.2,6.6c1.5,1.6,3.5,2.4,6.1,2.4
			c1.2,0,2.2-0.1,3-0.3c0.8-0.2,1.7-0.5,2.7-0.9v-2.4c-1.8,0.8-3.7,1.2-5.6,1.2c-1.8,0-3.2-0.5-4.2-1.6c-1-1.1-1.5-2.6-1.6-4.7h12
			v-1.7c0-2.4-0.6-4.3-1.9-5.7C1754.1,345.5,1752.4,344.7,1750.2,344.7z M1745.3,352.1c0.1-1.6,0.6-2.9,1.5-3.8
			c0.8-0.9,1.9-1.4,3.4-1.4c1.4,0,2.4,0.4,3.2,1.3c0.7,0.9,1.1,2.2,1.1,3.8H1745.3z"/>
		<path class="st2" d="M1706.8,344.7c-2.5,0-4.5,0.8-5.9,2.4c-1.4,1.6-2.1,3.8-2.1,6.7c0,1.8,0.3,3.4,1,4.8c0.7,1.4,1.6,2.4,2.8,3.2
			c1.2,0.7,2.6,1.1,4.2,1.1c2.5,0,4.5-0.8,5.9-2.4c1.4-1.6,2.1-3.8,2.1-6.7c0-2.8-0.7-5-2.2-6.6
			C1711.2,345.5,1709.2,344.7,1706.8,344.7z M1710.7,358.9c-0.9,1.2-2.2,1.7-3.9,1.7c-1.7,0-3-0.6-3.9-1.8c-0.9-1.2-1.3-2.9-1.3-5.1
			c0-2.3,0.4-4,1.3-5.1c0.9-1.1,2.2-1.7,3.9-1.7c1.8,0,3.1,0.6,4,1.7c0.9,1.2,1.3,2.8,1.3,5.1C1712,356,1711.6,357.7,1710.7,358.9z"
			/>
		<path class="st2" d="M1792.3,310.4c-0.7-0.8-2.1-1.5-4.2-2.3c-1.5-0.6-2.5-1-3.1-1.3c-0.5-0.3-0.9-0.6-1.2-0.9
			c-0.2-0.3-0.4-0.7-0.4-1.2c0-0.7,0.3-1.2,1-1.6c0.6-0.4,1.6-0.6,2.8-0.6c1.4,0,3,0.4,4.8,1.1l0.9-2.2c-1.8-0.8-3.6-1.1-5.5-1.1
			c-2,0-3.6,0.4-4.8,1.2c-1.2,0.8-1.7,1.9-1.7,3.4c0,0.8,0.2,1.5,0.5,2.1c0.3,0.6,0.8,1.1,1.5,1.5c0.7,0.5,1.8,1,3.5,1.6
			c1.7,0.7,2.9,1.2,3.5,1.7c0.6,0.5,0.9,1.1,0.9,1.7c0,0.9-0.4,1.6-1.1,2c-0.7,0.4-1.8,0.7-3.2,0.7c-0.9,0-1.8-0.1-2.8-0.4
			c-1-0.2-1.9-0.6-2.7-1v2.5c1.3,0.7,3.1,1.1,5.4,1.1c2.2,0,3.9-0.4,5.1-1.3c1.2-0.9,1.8-2.1,1.8-3.8
			C1793.4,312.1,1793,311.2,1792.3,310.4z"/>
		<path class="st2" d="M1714,300.3c-1,0-2.1,0.1-3.1,0.4c-1,0.3-2,0.6-2.8,1.1l0.8,2c1.8-0.9,3.5-1.3,4.9-1.3c1.3,0,2.2,0.3,2.8,1
			c0.6,0.7,0.9,1.7,0.9,3v1.1l-3,0.1c-5.6,0.2-8.5,2-8.5,5.6c0,1.7,0.5,2.9,1.5,3.8c1,0.9,2.3,1.3,4.1,1.3c1.3,0,2.4-0.2,3.2-0.6
			c0.9-0.4,1.7-1.1,2.6-2.2h0.1l0.5,2.5h2v-11.9c0-2-0.5-3.5-1.5-4.4C1717.6,300.8,1716,300.3,1714,300.3z M1717.5,311.1
			c0,1.6-0.5,2.9-1.4,3.8c-0.9,0.9-2.2,1.4-3.9,1.4c-1,0-1.8-0.3-2.4-0.8c-0.6-0.5-0.9-1.2-0.9-2.2c0-1.2,0.5-2.1,1.4-2.7
			c0.9-0.6,2.4-0.9,4.5-1l2.7-0.1V311.1z"/>
		<path class="st2" d="M1875.3,318.4c1.2,0,2.2-0.1,3-0.3c0.8-0.2,1.7-0.5,2.7-0.9v-2.4c-1.8,0.8-3.7,1.2-5.6,1.2
			c-1.8,0-3.2-0.5-4.2-1.6c-1-1.1-1.5-2.6-1.6-4.7h12v-1.7c0-2.4-0.6-4.3-1.9-5.7c-1.3-1.4-3-2.2-5.2-2.2c-2.3,0-4.2,0.8-5.6,2.5
			c-1.4,1.7-2.1,3.9-2.1,6.7c0,2.8,0.7,5,2.2,6.6C1870.6,317.6,1872.7,318.4,1875.3,318.4z M1871.2,303.9c0.8-0.9,1.9-1.4,3.4-1.4
			c1.4,0,2.4,0.4,3.2,1.3c0.7,0.9,1.1,2.2,1.1,3.8h-9.1C1869.9,306,1870.4,304.8,1871.2,303.9z"/>
		<path class="st2" d="M1693.9,403.1c-0.6,0-1.1,0.2-1.4,0.5c-0.3,0.4-0.5,0.9-0.5,1.6c0,0.8,0.2,1.3,0.5,1.6
			c0.4,0.3,0.8,0.5,1.3,0.5c0.6,0,1.1-0.2,1.4-0.6c0.3-0.4,0.5-0.9,0.5-1.6c0-0.7-0.2-1.2-0.5-1.6
			C1695,403.3,1694.5,403.1,1693.9,403.1z"/>
		<path class="st2" d="M1733.9,352.6c-1.5-0.6-2.5-1-3.1-1.3c-0.5-0.3-0.9-0.6-1.2-0.9c-0.2-0.3-0.4-0.7-0.4-1.2
			c0-0.7,0.3-1.2,1-1.6c0.6-0.4,1.6-0.6,2.8-0.6c1.4,0,3,0.4,4.8,1.1l0.9-2.2c-1.8-0.8-3.6-1.1-5.5-1.1c-2,0-3.6,0.4-4.8,1.2
			c-1.2,0.8-1.7,1.9-1.7,3.4c0,0.8,0.2,1.5,0.5,2.1c0.3,0.6,0.8,1.1,1.5,1.5c0.7,0.5,1.8,1,3.5,1.6c1.7,0.7,2.9,1.2,3.5,1.7
			c0.6,0.5,0.9,1.1,0.9,1.7c0,0.9-0.4,1.6-1.1,2c-0.7,0.4-1.8,0.7-3.2,0.7c-0.9,0-1.8-0.1-2.8-0.4c-1-0.2-1.9-0.6-2.7-1v2.5
			c1.3,0.7,3.1,1.1,5.4,1.1c2.2,0,3.9-0.4,5.1-1.3c1.2-0.9,1.8-2.1,1.8-3.8c0-1.2-0.4-2.1-1.1-2.9
			C1737.4,354.1,1736,353.4,1733.9,352.6z"/>
		<rect x="1894.5" y="300.6" class="st2" width="2.6" height="17.5"/>
		<path class="st2" d="M1371.7,344.7c-1.2,0-2.2,0.2-3.1,0.6c-0.9,0.4-1.7,1.1-2.4,2.1h-0.1l-0.4-2.4h-2.1v25.3h2.6v-7.2
			c0-0.9-0.1-1.9-0.2-2.9h0.2c0.6,0.9,1.4,1.5,2.4,1.9c0.9,0.4,2,0.6,3.1,0.6c2.3,0,4.1-0.8,5.3-2.4c1.3-1.6,1.9-3.8,1.9-6.7
			c0-2.9-0.6-5.1-1.9-6.7C1375.8,345.5,1374,344.7,1371.7,344.7z M1374.9,358.8c-0.9,1.2-2,1.8-3.5,1.8c-1.8,0-3.1-0.5-3.9-1.6
			c-0.8-1.1-1.2-2.8-1.2-5.3v-0.6c0-2.2,0.4-3.7,1.2-4.7c0.8-1,2.1-1.5,3.9-1.5c1.6,0,2.8,0.6,3.6,1.7c0.9,1.2,1.3,2.8,1.3,5
			C1376.2,355.9,1375.8,357.6,1374.9,358.8z"/>
		<path class="st2" d="M1895.8,297.6c0.4,0,0.8-0.1,1.1-0.4c0.3-0.3,0.5-0.7,0.5-1.3c0-0.6-0.2-1-0.5-1.3c-0.3-0.3-0.7-0.4-1.1-0.4
			c-0.4,0-0.8,0.1-1.1,0.4c-0.3,0.3-0.4,0.7-0.4,1.3c0,0.6,0.1,1,0.4,1.3C1895,297.5,1895.3,297.6,1895.8,297.6z"/>
		<path class="st2" d="M1928.3,338.6c-0.4,0-0.8,0.1-1.1,0.4c-0.3,0.3-0.4,0.7-0.4,1.3c0,0.6,0.1,1,0.4,1.3c0.3,0.3,0.7,0.4,1.1,0.4
			c0.4,0,0.8-0.1,1.1-0.4c0.3-0.3,0.5-0.7,0.5-1.3c0-0.6-0.2-1-0.5-1.3C1929.1,338.7,1928.7,338.6,1928.3,338.6z"/>
		<path class="st2" d="M1915.7,314.2c-0.6,0-1.1,0.2-1.4,0.5c-0.3,0.4-0.5,0.9-0.5,1.6c0,0.8,0.2,1.3,0.5,1.6
			c0.4,0.3,0.8,0.5,1.3,0.5c0.6,0,1.1-0.2,1.4-0.6c0.3-0.4,0.5-0.9,0.5-1.6c0-0.7-0.2-1.2-0.5-1.6
			C1916.8,314.4,1916.4,314.2,1915.7,314.2z"/>
		<rect x="1918.7" y="337.7" class="st2" width="2.6" height="24.8"/>
		<rect x="1910.4" y="337.7" class="st2" width="2.6" height="24.8"/>
		<path class="st2" d="M1910.7,315.9c-0.3,0.1-0.6,0.1-1,0.2c-0.4,0.1-0.9,0.1-1.4,0.1c-0.9,0-1.6-0.3-2.1-0.8
			c-0.5-0.6-0.8-1.4-0.8-2.4v-10.3h5.1v-2.1h-5.1v-4h-1.5l-1.1,3.7l-2.5,1.1v1.3h2.5V313c0,3.6,1.7,5.3,5.1,5.3c0.4,0,1,0,1.5-0.1
			c0.6-0.1,1-0.2,1.3-0.3V315.9z"/>
		<rect x="1926.9" y="345.1" class="st2" width="2.6" height="17.5"/>
		<path class="st2" d="M1941.2,352.6c-1.5-0.6-2.5-1-3.1-1.3c-0.5-0.3-0.9-0.6-1.2-0.9c-0.2-0.3-0.4-0.7-0.4-1.2
			c0-0.7,0.3-1.2,1-1.6c0.6-0.4,1.6-0.6,2.8-0.6c1.4,0,3,0.4,4.8,1.1l0.9-2.2c-1.8-0.8-3.6-1.1-5.5-1.1c-2,0-3.6,0.4-4.8,1.2
			c-1.2,0.8-1.7,1.9-1.7,3.4c0,0.8,0.2,1.5,0.5,2.1c0.3,0.6,0.8,1.1,1.5,1.5c0.7,0.5,1.8,1,3.5,1.6c1.7,0.7,2.9,1.2,3.5,1.7
			c0.6,0.5,0.9,1.1,0.9,1.7c0,0.9-0.4,1.6-1.1,2c-0.7,0.4-1.8,0.7-3.2,0.7c-0.9,0-1.8-0.1-2.8-0.4c-1-0.2-1.9-0.6-2.7-1v2.5
			c1.3,0.7,3.1,1.1,5.4,1.1c2.2,0,3.9-0.4,5.1-1.3c1.2-0.9,1.8-2.1,1.8-3.8c0-1.2-0.4-2.1-1.1-2.9
			C1944.6,354.1,1943.2,353.4,1941.2,352.6z"/>
		<path class="st2" d="M1897.8,344.7c-2.5,0-4.5,0.8-5.9,2.4c-1.4,1.6-2.1,3.8-2.1,6.7c0,1.8,0.3,3.4,1,4.8c0.7,1.4,1.6,2.4,2.8,3.2
			c1.2,0.7,2.6,1.1,4.2,1.1c2.5,0,4.5-0.8,5.9-2.4c1.4-1.6,2.1-3.8,2.1-6.7c0-2.8-0.7-5-2.2-6.6
			C1902.2,345.5,1900.2,344.7,1897.8,344.7z M1901.7,358.9c-0.9,1.2-2.2,1.7-3.9,1.7c-1.7,0-3-0.6-3.9-1.8c-0.9-1.2-1.3-2.9-1.3-5.1
			c0-2.3,0.4-4,1.3-5.1c0.9-1.1,2.2-1.7,3.9-1.7c1.8,0,3.1,0.6,4,1.7c0.9,1.2,1.3,2.8,1.3,5.1C1903,356,1902.6,357.7,1901.7,358.9z"
			/>
		<path class="st2" d="M1800.3,344.7c-1.2,0-2.2,0.2-3.1,0.6c-0.9,0.4-1.7,1.1-2.4,2.1h-0.1l-0.4-2.4h-2.1v25.3h2.6v-7.2
			c0-0.9-0.1-1.9-0.2-2.9h0.2c0.6,0.9,1.4,1.5,2.4,1.9c0.9,0.4,2,0.6,3.1,0.6c2.3,0,4.1-0.8,5.3-2.4c1.3-1.6,1.9-3.8,1.9-6.7
			c0-2.9-0.6-5.1-1.9-6.7C1804.4,345.5,1802.6,344.7,1800.3,344.7z M1803.5,358.8c-0.9,1.2-2,1.8-3.5,1.8c-1.8,0-3.1-0.5-3.9-1.6
			c-0.8-1.1-1.2-2.8-1.2-5.3v-0.6c0-2.2,0.4-3.7,1.2-4.7c0.8-1,2.1-1.5,3.9-1.5c1.5,0,2.8,0.6,3.6,1.7c0.9,1.2,1.3,2.8,1.3,5
			C1804.8,355.9,1804.4,357.6,1803.5,358.8z"/>
		<rect x="1691.4" y="345.1" class="st2" width="2.6" height="17.5"/>
		<path class="st2" d="M1835.4,345.7c-0.9,0.6-1.7,1.5-2.3,2.6h-0.1l-0.3-3.2h-2.2v17.5h2.7v-9.4c0-1.7,0.5-3.1,1.5-4.3
			c1-1.1,2.2-1.7,3.6-1.7c0.6,0,1.2,0.1,1.9,0.2l0.4-2.5c-0.6-0.1-1.3-0.2-2.1-0.2C1837.4,344.7,1836.4,345,1835.4,345.7z"/>
		<path class="st2" d="M1833.4,306.8v11.3h2.6v-11.4c0-2.2-0.5-3.9-1.6-4.9c-1.1-1-2.6-1.5-4.8-1.5c-1.2,0-2.3,0.2-3.3,0.7
			c-1,0.5-1.7,1.1-2.3,2h-0.1l-0.4-2.4h-2.1v17.5h2.6v-9.2c0-2.3,0.4-3.9,1.3-4.9c0.8-1,2.2-1.5,4-1.5c1.4,0,2.4,0.3,3,1.1
			C1833.1,304.3,1833.4,305.3,1833.4,306.8z"/>
		<path class="st2" d="M1818.9,344.7c-2.3,0-4.2,0.8-5.6,2.5c-1.4,1.7-2.1,3.9-2.1,6.7c0,2.8,0.7,5,2.2,6.6c1.5,1.6,3.5,2.4,6.1,2.4
			c1.2,0,2.2-0.1,3-0.3c0.8-0.2,1.7-0.5,2.7-0.9v-2.4c-1.8,0.8-3.7,1.2-5.6,1.2c-1.8,0-3.2-0.5-4.2-1.6c-1-1.1-1.5-2.6-1.6-4.7h12
			v-1.7c0-2.4-0.6-4.3-1.9-5.7C1822.8,345.5,1821.1,344.7,1818.9,344.7z M1814,352.1c0.1-1.6,0.6-2.9,1.5-3.8
			c0.8-0.9,1.9-1.4,3.4-1.4c1.4,0,2.4,0.4,3.2,1.3c0.7,0.9,1.1,2.2,1.1,3.8H1814z"/>
		<path class="st2" d="M1804.8,302.6c0.5,0,1.1,0.1,1.8,0.2c0.7,0.2,1.3,0.3,1.9,0.6l0.8-2.2c-0.5-0.3-1.1-0.5-2-0.6
			c-0.8-0.2-1.7-0.3-2.5-0.3c-2.6,0-4.6,0.8-6,2.4c-1.4,1.6-2.1,3.9-2.1,6.8c0,2.8,0.7,5,2.1,6.6c1.4,1.6,3.3,2.3,5.9,2.3
			c1.8,0,3.2-0.3,4.4-0.9v-2.4c-1.5,0.6-3,0.9-4.5,0.9c-1.7,0-3-0.6-3.9-1.7c-0.9-1.1-1.3-2.8-1.3-4.9
			C1799.4,304.9,1801.2,302.6,1804.8,302.6z"/>
		<path class="st2" d="M1879.3,344.7c-1.3,0-2.4,0.3-3.4,0.8c-1,0.5-1.7,1.3-2.3,2.2h-0.1c-0.8-2-2.6-3-5.4-3
			c-1.1,0-2.1,0.2-3.1,0.7c-0.9,0.5-1.6,1.1-2.1,2h-0.1l-0.4-2.4h-2.2v17.5h2.6v-9.2c0-2.3,0.4-3.9,1.2-4.9c0.8-1,2-1.5,3.6-1.5
			c1.3,0,2.2,0.3,2.8,1c0.6,0.7,0.9,1.7,0.9,3.1v11.4h2.6v-9.8c0-2,0.4-3.4,1.2-4.4c0.8-0.9,2-1.4,3.7-1.4c1.3,0,2.2,0.3,2.8,1
			c0.6,0.7,0.9,1.7,0.9,3.1v11.4h2.6v-11.4c0-2.2-0.5-3.9-1.5-4.9C1882.8,345.2,1881.3,344.7,1879.3,344.7z"/>
		<rect x="1886.2" y="293.3" class="st2" width="2.6" height="24.8"/>
		<path class="st2" d="M1843.7,358.7c-0.1,1-0.4,2.3-0.7,3.9c-0.3,1.6-0.7,3-0.9,4.1h2c0.6-1.2,1.1-2.5,1.6-3.9
			c0.5-1.4,0.9-2.6,1.2-3.7l-0.2-0.4H1843.7z"/>
		<path class="st2" d="M1847.3,300.3c-2.1,0-3.7,0.5-4.9,1.6c-1.1,1-1.7,2.5-1.7,4.4c0,1.1,0.3,2.2,0.9,3.1c0.6,0.9,1.3,1.5,2.2,1.9
			c-0.7,0.4-1.3,0.9-1.6,1.4c-0.3,0.5-0.5,1-0.5,1.7c0,0.6,0.2,1.1,0.5,1.5c0.3,0.4,0.7,0.7,1.1,0.9c-1.2,0.3-2.2,0.8-2.9,1.6
			c-0.7,0.8-1,1.7-1,2.8c0,1.5,0.6,2.7,1.9,3.6c1.2,0.8,3,1.3,5.3,1.3c3,0,5.2-0.5,6.8-1.5c1.5-1,2.3-2.5,2.3-4.4
			c0-1.5-0.5-2.7-1.5-3.5c-1-0.8-2.5-1.2-4.4-1.2h-3.1c-1,0-1.6-0.1-2-0.3c-0.4-0.2-0.6-0.6-0.6-1.1c0-0.9,0.6-1.7,1.7-2.2
			c0.5,0.1,0.9,0.1,1.5,0.1c2,0,3.6-0.5,4.8-1.5c1.2-1,1.8-2.4,1.8-4.1c0-0.8-0.1-1.4-0.3-2c-0.2-0.6-0.5-1.1-0.8-1.5l3.2-0.4v-1.7
			h-6C1849,300.4,1848.2,300.3,1847.3,300.3z M1845.7,317.7h3.2c1.6,0,2.7,0.2,3.3,0.6c0.6,0.4,0.9,1,0.9,2c0,1.1-0.5,2-1.6,2.7
			c-1.1,0.7-2.7,1-4.9,1c-1.5,0-2.6-0.2-3.4-0.7c-0.8-0.5-1.2-1.2-1.2-2.1c0-1.1,0.3-1.9,1-2.5
			C1843.6,318,1844.5,317.7,1845.7,317.7z M1851.1,306.1c0,2.5-1.3,3.8-3.9,3.8c-1.2,0-2.2-0.3-2.9-0.9c-0.7-0.6-1-1.6-1-2.8
			c0-1.3,0.3-2.3,1-3c0.7-0.7,1.6-1,2.9-1C1849.8,302.2,1851.1,303.5,1851.1,306.1z"/>
		<path class="st2" d="M1737.3,300.4l0.1,1.2l0.1,1.3h-0.2c-1.3-1.7-3.1-2.6-5.5-2.6c-2.3,0-4.1,0.8-5.3,2.4
			c-1.3,1.6-1.9,3.8-1.9,6.7c0,2.9,0.6,5.1,1.9,6.7c1.3,1.6,3.1,2.3,5.3,2.3c2.4,0,4.3-0.9,5.5-2.7h0.1l0.4,2.3h2.1v-24.8h-2.6
			V300.4z M1737.3,309.9c0,2.2-0.4,3.8-1.2,4.8c-0.8,1-2.1,1.5-3.9,1.5c-1.6,0-2.8-0.6-3.6-1.7c-0.8-1.1-1.2-2.8-1.2-5
			c0-2.2,0.4-3.9,1.2-5.1c0.8-1.2,2-1.8,3.6-1.8c1.8,0,3.1,0.5,4,1.6c0.8,1.1,1.2,2.8,1.2,5.3V309.9z"/>
		<rect x="1438.1" y="382.2" class="st2" width="2.6" height="24.8"/>
		<path class="st2" d="M1453.1,389.2c-2.3,0-4.2,0.8-5.6,2.5c-1.4,1.7-2.1,3.9-2.1,6.7c0,2.8,0.7,5,2.2,6.6c1.5,1.6,3.5,2.4,6.1,2.4
			c1.2,0,2.2-0.1,3-0.3c0.8-0.2,1.7-0.5,2.7-0.9v-2.4c-1.8,0.8-3.7,1.2-5.6,1.2c-1.8,0-3.2-0.5-4.2-1.6c-1-1.1-1.5-2.6-1.5-4.7h12
			v-1.7c0-2.4-0.6-4.3-1.9-5.7C1457,389.9,1455.3,389.2,1453.1,389.2z M1448.2,396.6c0.1-1.6,0.6-2.9,1.5-3.8
			c0.8-0.9,1.9-1.4,3.4-1.4c1.4,0,2.4,0.4,3.2,1.3c0.7,0.9,1.1,2.2,1.1,3.8H1448.2z"/>
		<path class="st2" d="M1449.8,347.2c0.6,0,1.2,0.1,1.9,0.2l0.4-2.5c-0.6-0.1-1.3-0.2-2.1-0.2c-1.1,0-2.1,0.3-3,0.9
			c-0.9,0.6-1.7,1.5-2.3,2.6h-0.1l-0.3-3.2h-2.2v17.5h2.7v-9.4c0-1.7,0.5-3.1,1.5-4.3C1447.1,347.7,1448.3,347.2,1449.8,347.2z"/>
		<path class="st2" d="M1430.4,344.7c-2.3,0-4.2,0.8-5.6,2.5c-1.4,1.7-2.1,3.9-2.1,6.7c0,2.8,0.7,5,2.2,6.6c1.5,1.6,3.5,2.4,6.1,2.4
			c1.2,0,2.2-0.1,3-0.3c0.8-0.2,1.7-0.5,2.7-0.9v-2.4c-1.8,0.8-3.7,1.2-5.6,1.2c-1.8,0-3.2-0.5-4.2-1.6c-1-1.1-1.5-2.6-1.5-4.7h12
			v-1.7c0-2.4-0.6-4.3-1.9-5.7C1434.3,345.5,1432.5,344.7,1430.4,344.7z M1425.5,352.1c0.1-1.6,0.6-2.9,1.5-3.8
			c0.8-0.9,1.9-1.4,3.4-1.4c1.4,0,2.4,0.4,3.2,1.3c0.7,0.9,1.1,2.2,1.1,3.8H1425.5z"/>
		<path class="st2" d="M1498.2,318.3c0.6-0.1,1-0.2,1.3-0.3v-2c-0.3,0.1-0.6,0.1-1,0.2c-0.4,0.1-0.9,0.1-1.4,0.1
			c-0.9,0-1.6-0.3-2.1-0.8c-0.5-0.6-0.8-1.4-0.8-2.4v-10.3h5.1v-2.1h-5.1v-4h-1.5l-1.1,3.7l-2.5,1.1v1.3h2.5V313
			c0,3.6,1.7,5.3,5.1,5.3C1497.1,318.4,1497.6,318.3,1498.2,318.3z"/>
		<path class="st2" d="M1426.5,389.2c-2.3,0-4.2,0.8-5.6,2.5c-1.4,1.7-2.1,3.9-2.1,6.7c0,2.8,0.7,5,2.2,6.6c1.5,1.6,3.5,2.4,6.1,2.4
			c1.2,0,2.2-0.1,3-0.3c0.8-0.2,1.7-0.5,2.7-0.9v-2.4c-1.8,0.8-3.7,1.2-5.6,1.2c-1.8,0-3.2-0.5-4.2-1.6c-1-1.1-1.5-2.6-1.5-4.7h12
			v-1.7c0-2.4-0.6-4.3-1.9-5.7C1430.4,389.9,1428.7,389.2,1426.5,389.2z M1421.6,396.6c0.1-1.6,0.6-2.9,1.5-3.8
			c0.8-0.9,1.9-1.4,3.4-1.4c1.4,0,2.4,0.4,3.2,1.3c0.7,0.9,1.1,2.2,1.1,3.8H1421.6z"/>
		<path class="st2" d="M1464.9,360l0.5,2.5h2v-11.9c0-2-0.5-3.5-1.5-4.4c-1-0.9-2.5-1.4-4.6-1.4c-1,0-2.1,0.1-3.1,0.4
			c-1,0.3-2,0.6-2.8,1.1l0.8,2c1.8-0.9,3.5-1.3,4.9-1.3c1.3,0,2.2,0.3,2.8,1c0.6,0.7,0.9,1.7,0.9,3v1.1l-3,0.1
			c-5.6,0.2-8.5,2-8.5,5.6c0,1.7,0.5,2.9,1.5,3.8c1,0.9,2.3,1.3,4.1,1.3c1.3,0,2.4-0.2,3.2-0.6c0.9-0.4,1.7-1.1,2.6-2.2H1464.9z
			 M1464.7,355.5c0,1.6-0.5,2.9-1.4,3.8c-0.9,0.9-2.2,1.4-3.9,1.4c-1,0-1.9-0.3-2.4-0.8c-0.6-0.5-0.9-1.2-0.9-2.2
			c0-1.2,0.5-2.1,1.4-2.7c0.9-0.6,2.4-0.9,4.5-1l2.6-0.1V355.5z"/>
		<path class="st2" d="M1501.8,389.2c-2.3,0-4.2,0.8-5.6,2.5c-1.4,1.7-2.1,3.9-2.1,6.7c0,2.8,0.7,5,2.2,6.6c1.5,1.6,3.5,2.4,6.1,2.4
			c1.2,0,2.2-0.1,3-0.3c0.8-0.2,1.7-0.5,2.7-0.9v-2.4c-1.8,0.8-3.7,1.2-5.6,1.2c-1.8,0-3.2-0.5-4.2-1.6c-1-1.1-1.5-2.6-1.5-4.7h12
			v-1.7c0-2.4-0.6-4.3-1.9-5.7C1505.7,389.9,1503.9,389.2,1501.8,389.2z M1496.9,396.6c0.1-1.6,0.6-2.9,1.5-3.8
			c0.8-0.9,1.9-1.4,3.4-1.4c1.4,0,2.4,0.4,3.2,1.3c0.7,0.9,1.1,2.2,1.1,3.8H1496.9z"/>
		<path class="st2" d="M1483.7,389.2c-1.3,0-2.4,0.3-3.4,0.8c-1,0.5-1.7,1.3-2.3,2.2h-0.1c-0.8-2-2.6-3-5.4-3
			c-1.1,0-2.1,0.2-3.1,0.7c-0.9,0.5-1.6,1.1-2.1,2h-0.1l-0.4-2.4h-2.1V407h2.6v-9.2c0-2.3,0.4-3.9,1.2-4.9c0.8-1,2-1.5,3.6-1.5
			c1.3,0,2.2,0.3,2.8,1c0.6,0.7,0.9,1.7,0.9,3.1V407h2.6v-9.8c0-2,0.4-3.4,1.2-4.4c0.8-0.9,2-1.4,3.7-1.4c1.3,0,2.2,0.3,2.8,1
			c0.6,0.7,0.9,1.7,0.9,3.1V407h2.7v-11.4c0-2.2-0.5-3.9-1.5-4.9C1487.1,389.7,1485.7,389.2,1483.7,389.2z"/>
		<path class="st2" d="M1521.6,389.2c-1.2,0-2.3,0.2-3.3,0.7c-1,0.5-1.7,1.1-2.3,2h-0.1l-0.4-2.4h-2.2V407h2.6v-9.2
			c0-2.3,0.4-3.9,1.3-4.9c0.8-1,2.2-1.5,4-1.5c1.4,0,2.4,0.3,3,1.1c0.7,0.7,1,1.8,1,3.2V407h2.6v-11.4c0-2.2-0.5-3.9-1.6-4.9
			C1525.3,389.7,1523.7,389.2,1521.6,389.2z"/>
		<path class="st2" d="M1391.5,389.2c-1.2,0-2.3,0.2-3.3,0.7c-1,0.5-1.7,1.1-2.3,2h-0.1l-0.4-2.4h-2.1V407h2.6v-9.2
			c0-2.3,0.4-3.9,1.3-4.9c0.8-1,2.2-1.5,4-1.5c1.4,0,2.4,0.3,3,1.1c0.7,0.7,1,1.8,1,3.2V407h2.6v-11.4c0-2.2-0.5-3.9-1.6-4.9
			C1395.2,389.7,1393.6,389.2,1391.5,389.2z"/>
		<path class="st2" d="M1390.9,362.9c1.2,0,2.2-0.1,3-0.3c0.8-0.2,1.7-0.5,2.7-0.9v-2.4c-1.8,0.8-3.7,1.2-5.6,1.2
			c-1.8,0-3.2-0.5-4.2-1.6c-1-1.1-1.5-2.6-1.5-4.7h12v-1.7c0-2.4-0.6-4.3-1.9-5.7c-1.3-1.4-3-2.2-5.2-2.2c-2.3,0-4.2,0.8-5.6,2.5
			c-1.4,1.7-2.1,3.9-2.1,6.7c0,2.8,0.7,5,2.2,6.6C1386.3,362.1,1388.3,362.9,1390.9,362.9z M1386.9,348.3c0.8-0.9,1.9-1.4,3.4-1.4
			c1.4,0,2.4,0.4,3.2,1.3c0.7,0.9,1.1,2.2,1.1,3.8h-9.1C1385.5,350.5,1386,349.2,1386.9,348.3z"/>
		<path class="st2" d="M1410.2,316.2c-0.9,0-1.6-0.3-2.1-0.8c-0.5-0.6-0.8-1.4-0.8-2.4v-10.3h5.1v-2.1h-5.1v-4h-1.5l-1.1,3.7
			l-2.5,1.1v1.3h2.5V313c0,3.6,1.7,5.3,5.1,5.3c0.4,0,1,0,1.5-0.1c0.6-0.1,1-0.2,1.3-0.3v-2c-0.3,0.1-0.6,0.1-1,0.2
			C1411.1,316.2,1410.7,316.2,1410.2,316.2z"/>
		<rect x="1396.3" y="300.6" class="st2" width="2.6" height="17.5"/>
		<path class="st2" d="M1388.3,315.5c-0.7,0.4-1.8,0.7-3.2,0.7c-0.9,0-1.8-0.1-2.8-0.4c-1-0.2-1.9-0.6-2.7-1v2.5
			c1.3,0.7,3.1,1.1,5.4,1.1c2.2,0,3.9-0.4,5.1-1.3c1.2-0.9,1.8-2.1,1.8-3.8c0-1.2-0.4-2.1-1.1-2.9c-0.7-0.8-2.1-1.5-4.2-2.3
			c-1.5-0.6-2.5-1-3.1-1.3c-0.5-0.3-0.9-0.6-1.2-0.9c-0.2-0.3-0.4-0.7-0.4-1.2c0-0.7,0.3-1.2,1-1.6c0.6-0.4,1.6-0.6,2.8-0.6
			c1.4,0,3,0.4,4.8,1.1l0.9-2.2c-1.8-0.8-3.6-1.1-5.5-1.1c-2,0-3.6,0.4-4.8,1.2c-1.2,0.8-1.7,1.9-1.7,3.4c0,0.8,0.2,1.5,0.5,2.1
			c0.3,0.6,0.8,1.1,1.5,1.5c0.7,0.5,1.8,1,3.5,1.6c1.7,0.7,2.9,1.2,3.4,1.7c0.6,0.5,0.9,1.1,0.9,1.7
			C1389.5,314.4,1389.1,315.1,1388.3,315.5z"/>
		<path class="st2" d="M1406.8,345.7c-0.9,0.6-1.7,1.5-2.3,2.6h-0.1l-0.3-3.2h-2.2v17.5h2.7v-9.4c0-1.7,0.5-3.1,1.5-4.3
			c1-1.1,2.2-1.7,3.6-1.7c0.6,0,1.2,0.1,1.9,0.2l0.4-2.5c-0.6-0.1-1.3-0.2-2.1-0.2C1408.7,344.7,1407.7,345,1406.8,345.7z"/>
		<path class="st2" d="M1403.2,403.2c-0.1,1-0.4,2.3-0.7,3.9c-0.3,1.6-0.7,3-0.9,4.1h2c0.6-1.2,1.1-2.5,1.6-3.9
			c0.5-1.4,0.9-2.6,1.2-3.7l-0.2-0.4H1403.2z"/>
		<path class="st2" d="M1397.7,294.1c-0.4,0-0.8,0.1-1.1,0.4c-0.3,0.3-0.4,0.7-0.4,1.3c0,0.6,0.1,1,0.4,1.3c0.3,0.3,0.7,0.4,1.1,0.4
			c0.4,0,0.8-0.1,1.1-0.4c0.3-0.3,0.5-0.7,0.5-1.3c0-0.6-0.2-1-0.5-1.3C1398.4,294.2,1398.1,294.1,1397.7,294.1z"/>
		<path class="st2" d="M1556.7,398.7c0,2.3-0.4,3.9-1.3,4.9c-0.8,1-2.2,1.5-4,1.5c-1.4,0-2.4-0.3-3-1.1c-0.7-0.7-1-1.8-1-3.2v-11.3
			h-2.7V401c0,2.2,0.5,3.8,1.6,4.8c1.1,1,2.7,1.5,4.8,1.5c1.2,0,2.3-0.2,3.3-0.7c1-0.5,1.7-1.1,2.3-2h0.1l0.4,2.3h2.2v-17.5h-2.6
			V398.7z"/>
		<path class="st2" d="M1611.6,344.7c-2.3,0-4.2,0.8-5.6,2.5c-1.4,1.7-2.1,3.9-2.1,6.7c0,2.8,0.7,5,2.2,6.6c1.5,1.6,3.5,2.4,6.1,2.4
			c1.2,0,2.2-0.1,3-0.3c0.8-0.2,1.7-0.5,2.7-0.9v-2.4c-1.8,0.8-3.7,1.2-5.6,1.2c-1.8,0-3.2-0.5-4.2-1.6c-1-1.1-1.5-2.6-1.6-4.7h12
			v-1.7c0-2.4-0.6-4.3-1.9-5.7C1615.5,345.5,1613.8,344.7,1611.6,344.7z M1606.7,352.1c0.1-1.6,0.6-2.9,1.5-3.8
			c0.8-0.9,1.9-1.4,3.4-1.4c1.4,0,2.4,0.4,3.2,1.3c0.7,0.9,1.1,2.2,1.1,3.8H1606.7z"/>
		<path class="st2" d="M1635.6,398.7c0,2.3-0.4,3.9-1.3,4.9c-0.8,1-2.2,1.5-4,1.5c-1.4,0-2.4-0.3-3-1.1c-0.7-0.7-1-1.8-1-3.2v-11.3
			h-2.7V401c0,2.2,0.5,3.8,1.6,4.8c1.1,1,2.7,1.5,4.8,1.5c1.2,0,2.3-0.2,3.3-0.7c1-0.5,1.7-1.1,2.3-2h0.1l0.4,2.3h2.2v-17.5h-2.6
			V398.7z"/>
		<path class="st2" d="M1624.4,313c0,3.6,1.7,5.3,5.1,5.3c0.4,0,1,0,1.5-0.1c0.6-0.1,1-0.2,1.3-0.3v-2c-0.3,0.1-0.6,0.1-1,0.2
			c-0.4,0.1-0.9,0.1-1.4,0.1c-0.9,0-1.6-0.3-2.1-0.8c-0.5-0.6-0.8-1.4-0.8-2.4v-10.3h5.1v-2.1h-5.1v-4h-1.5l-1.1,3.7l-2.5,1.1v1.3
			h2.5V313z"/>
		<path class="st2" d="M1650.4,389.2c-1,0-2.1,0.1-3.1,0.4c-1,0.3-2,0.6-2.8,1.1l0.8,2c1.8-0.9,3.5-1.3,4.9-1.3c1.3,0,2.2,0.3,2.8,1
			c0.6,0.7,0.9,1.7,0.9,3v1.1l-3,0.1c-5.6,0.2-8.5,2-8.5,5.6c0,1.7,0.5,2.9,1.5,3.8c1,0.9,2.3,1.3,4.1,1.3c1.3,0,2.4-0.2,3.2-0.6
			c0.9-0.4,1.7-1.1,2.6-2.2h0.1l0.5,2.5h2v-11.9c0-2-0.5-3.5-1.5-4.4C1654.1,389.7,1652.5,389.2,1650.4,389.2z M1653.9,400
			c0,1.6-0.5,2.9-1.4,3.8c-0.9,0.9-2.2,1.4-3.9,1.4c-1,0-1.9-0.3-2.4-0.8c-0.6-0.5-0.9-1.2-0.9-2.2c0-1.2,0.5-2.1,1.4-2.7
			c0.9-0.6,2.4-0.9,4.5-1l2.7-0.1V400z"/>
		<path class="st2" d="M1629.5,362.9c2.4,0,4.3-0.9,5.5-2.7h0.1l0.4,2.3h2.1v-24.8h-2.6v7.1l0.1,1.2l0.1,1.3h-0.2
			c-1.3-1.7-3.1-2.6-5.5-2.6c-2.3,0-4.1,0.8-5.3,2.4c-1.3,1.6-1.9,3.8-1.9,6.7c0,2.9,0.6,5.1,1.9,6.7
			C1625.4,362.1,1627.2,362.9,1629.5,362.9z M1626.2,348.8c0.8-1.2,2-1.8,3.6-1.8c1.8,0,3.1,0.5,4,1.6c0.8,1.1,1.2,2.8,1.2,5.3v0.6
			c0,2.2-0.4,3.8-1.2,4.8c-0.8,1-2.1,1.5-3.9,1.5c-1.6,0-2.8-0.6-3.6-1.7c-0.8-1.1-1.2-2.8-1.2-5
			C1625,351.7,1625.4,350,1626.2,348.8z"/>
		<path class="st2" d="M1666.8,353.8c0-2.8-0.7-5-2.2-6.6c-1.4-1.6-3.4-2.4-5.8-2.4c-2.5,0-4.5,0.8-5.9,2.4
			c-1.4,1.6-2.1,3.8-2.1,6.7c0,1.8,0.3,3.4,1,4.8c0.7,1.4,1.6,2.4,2.8,3.2c1.2,0.7,2.6,1.1,4.2,1.1c2.5,0,4.5-0.8,5.9-2.4
			C1666.1,358.9,1666.8,356.6,1666.8,353.8z M1662.7,358.9c-0.9,1.2-2.2,1.7-3.9,1.7c-1.7,0-3-0.6-3.9-1.8c-0.9-1.2-1.3-2.9-1.3-5.1
			c0-2.3,0.4-4,1.3-5.1c0.9-1.1,2.2-1.7,3.9-1.7c1.8,0,3.1,0.6,4,1.7c0.9,1.2,1.3,2.8,1.3,5.1C1664.1,356,1663.6,357.7,1662.7,358.9
			z"/>
		<path class="st2" d="M1539.1,405.1c-0.9,0-1.6-0.3-2.1-0.8c-0.5-0.6-0.8-1.4-0.8-2.4v-10.3h5.1v-2.1h-5.1v-4h-1.5l-1.1,3.7
			l-2.5,1.1v1.3h2.5V402c0,3.6,1.7,5.3,5.1,5.3c0.4,0,1,0,1.5-0.1c0.6-0.1,1-0.2,1.3-0.3v-2c-0.3,0.1-0.6,0.1-1,0.2
			C1540,405.1,1539.5,405.1,1539.1,405.1z"/>
		<path class="st2" d="M1681,389.2c-1.3,0-2.4,0.3-3.4,0.8c-1,0.5-1.7,1.3-2.3,2.2h-0.1c-0.8-2-2.6-3-5.4-3c-1.1,0-2.1,0.2-3.1,0.7
			c-0.9,0.5-1.6,1.1-2.1,2h-0.1l-0.4-2.4h-2.1V407h2.6v-9.2c0-2.3,0.4-3.9,1.2-4.9c0.8-1,2-1.5,3.6-1.5c1.3,0,2.2,0.3,2.8,1
			c0.6,0.7,0.9,1.7,0.9,3.1V407h2.6v-9.8c0-2,0.4-3.4,1.2-4.4c0.8-0.9,2-1.4,3.7-1.4c1.3,0,2.2,0.3,2.8,1c0.6,0.7,0.9,1.7,0.9,3.1
			V407h2.7v-11.4c0-2.2-0.5-3.9-1.5-4.9C1684.5,389.7,1683,389.2,1681,389.2z"/>
		<path class="st2" d="M1695.3,302.9l0.4-2.5c-0.6-0.1-1.3-0.2-2.1-0.2c-1.1,0-2.1,0.3-3,0.9c-0.9,0.6-1.7,1.5-2.3,2.6h-0.1
			l-0.3-3.2h-2.2v17.5h2.6v-9.4c0-1.7,0.5-3.1,1.5-4.3c1-1.1,2.2-1.7,3.6-1.7C1693.9,302.7,1694.5,302.8,1695.3,302.9z"/>
		<path class="st2" d="M1692.8,342.1c0.4,0,0.8-0.1,1.1-0.4c0.3-0.3,0.5-0.7,0.5-1.3c0-0.6-0.2-1-0.5-1.3c-0.3-0.3-0.7-0.4-1.1-0.4
			c-0.4,0-0.8,0.1-1.1,0.4c-0.3,0.3-0.4,0.7-0.4,1.3c0,0.6,0.1,1,0.4,1.3C1692,341.9,1692.3,342.1,1692.8,342.1z"/>
		<rect x="1546.2" y="337.7" class="st2" width="2.6" height="24.8"/>
		<path class="st2" d="M1550.1,309.3c0-2.8-0.7-5-2.2-6.6c-1.4-1.6-3.4-2.4-5.8-2.4c-2.5,0-4.5,0.8-5.9,2.4
			c-1.4,1.6-2.1,3.8-2.1,6.7c0,1.8,0.3,3.4,1,4.8c0.7,1.4,1.6,2.4,2.8,3.2c1.2,0.7,2.6,1.1,4.2,1.1c2.5,0,4.5-0.8,5.9-2.4
			C1549.3,314.4,1550.1,312.2,1550.1,309.3z M1546,314.4c-0.9,1.2-2.2,1.7-3.9,1.7c-1.7,0-3-0.6-3.9-1.8c-0.9-1.2-1.3-2.9-1.3-5.1
			c0-2.3,0.4-4,1.3-5.1c0.9-1.1,2.2-1.7,3.9-1.7c1.8,0,3.1,0.6,4,1.7c0.9,1.2,1.3,2.8,1.3,5.1C1547.3,311.6,1546.9,313.3,1546,314.4
			z"/>
		<path class="st2" d="M1570.2,362.3c0.9-0.4,1.7-1.1,2.6-2.2h0.1l0.5,2.5h2v-11.9c0-2-0.5-3.5-1.5-4.4c-1-0.9-2.5-1.4-4.6-1.4
			c-1,0-2.1,0.1-3.1,0.4c-1,0.3-2,0.6-2.8,1.1l0.8,2c1.8-0.9,3.5-1.3,4.9-1.3c1.3,0,2.2,0.3,2.8,1c0.6,0.7,0.9,1.7,0.9,3v1.1l-3,0.1
			c-5.6,0.2-8.5,2-8.5,5.6c0,1.7,0.5,2.9,1.5,3.8c1,0.9,2.3,1.3,4.1,1.3C1568.2,362.9,1569.3,362.7,1570.2,362.3z M1564.2,357.7
			c0-1.2,0.5-2.1,1.4-2.7c0.9-0.6,2.4-0.9,4.5-1l2.7-0.1v1.6c0,1.6-0.5,2.9-1.4,3.8c-0.9,0.9-2.2,1.4-3.9,1.4c-1,0-1.9-0.3-2.4-0.8
			C1564.4,359.4,1564.2,358.7,1564.2,357.7z"/>
		<path class="st2" d="M1615.8,391.9h-0.1c-1.3-1.8-3.1-2.7-5.5-2.7c-2.3,0-4.1,0.8-5.3,2.4c-1.3,1.6-1.9,3.8-1.9,6.7
			c0,2.8,0.6,5,1.9,6.6c1.3,1.6,3,2.4,5.3,2.4c2.5,0,4.3-0.9,5.5-2.7h0.2c-0.1,0.7-0.2,1.6-0.2,2.7v7.5h2.6v-25.3h-2.1L1615.8,391.9
			z M1615.6,398.9c-0.1,2.2-0.5,3.8-1.3,4.8c-0.8,0.9-2.1,1.4-3.9,1.4c-1.6,0-2.8-0.6-3.6-1.7c-0.8-1.2-1.2-2.8-1.2-5
			c0-2.2,0.4-3.9,1.2-5.1c0.8-1.2,2-1.8,3.6-1.8c1.8,0,3.1,0.5,3.9,1.6c0.8,1.1,1.2,2.8,1.2,5.3V398.9z"/>
		<path class="st2" d="M1584,389.2c-1.3,0-2.4,0.3-3.4,0.8c-1,0.5-1.7,1.3-2.3,2.2h-0.1c-0.8-2-2.6-3-5.4-3c-1.1,0-2.1,0.2-3.1,0.7
			c-0.9,0.5-1.6,1.1-2.1,2h-0.1l-0.4-2.4h-2.1V407h2.6v-9.2c0-2.3,0.4-3.9,1.2-4.9c0.8-1,2-1.5,3.6-1.5c1.3,0,2.2,0.3,2.8,1
			c0.6,0.7,0.9,1.7,0.9,3.1V407h2.6v-9.8c0-2,0.4-3.4,1.2-4.4c0.8-0.9,2-1.4,3.7-1.4c1.3,0,2.2,0.3,2.8,1c0.6,0.7,0.9,1.7,0.9,3.1
			V407h2.7v-11.4c0-2.2-0.5-3.9-1.5-4.9C1587.4,389.7,1586,389.2,1584,389.2z"/>
		<path class="st2" d="M1603.4,314.9c-1.8,0.8-3.7,1.2-5.6,1.2c-1.8,0-3.2-0.5-4.2-1.6c-1-1.1-1.5-2.6-1.5-4.7h12v-1.7
			c0-2.4-0.6-4.3-1.9-5.7c-1.3-1.4-3-2.2-5.2-2.2c-2.3,0-4.2,0.8-5.6,2.5c-1.4,1.7-2.1,3.9-2.1,6.7c0,2.8,0.7,5,2.2,6.6
			c1.5,1.6,3.5,2.4,6.1,2.4c1.2,0,2.2-0.1,3-0.3c0.8-0.2,1.7-0.5,2.7-0.9V314.9z M1593.6,303.9c0.8-0.9,1.9-1.4,3.4-1.4
			c1.4,0,2.4,0.4,3.2,1.3c0.7,0.9,1.1,2.2,1.1,3.8h-9.1C1592.3,306,1592.8,304.8,1593.6,303.9z"/>
		<path class="st2" d="M1595.3,352.6c-1.5-0.6-2.5-1-3.1-1.3c-0.5-0.3-0.9-0.6-1.2-0.9c-0.2-0.3-0.4-0.7-0.4-1.2
			c0-0.7,0.3-1.2,1-1.6c0.6-0.4,1.6-0.6,2.8-0.6c1.4,0,3,0.4,4.8,1.1l0.9-2.2c-1.8-0.8-3.6-1.1-5.5-1.1c-2,0-3.6,0.4-4.8,1.2
			c-1.2,0.8-1.7,1.9-1.7,3.4c0,0.8,0.2,1.5,0.5,2.1c0.3,0.6,0.8,1.1,1.5,1.5c0.7,0.5,1.8,1,3.5,1.6c1.7,0.7,2.9,1.2,3.5,1.7
			c0.6,0.5,0.9,1.1,0.9,1.7c0,0.9-0.4,1.6-1.1,2c-0.7,0.4-1.8,0.7-3.2,0.7c-0.9,0-1.8-0.1-2.8-0.4c-1-0.2-1.9-0.6-2.7-1v2.5
			c1.3,0.7,3.1,1.1,5.4,1.1c2.2,0,3.9-0.4,5.1-1.3c1.2-0.9,1.8-2.1,1.8-3.8c0-1.2-0.4-2.1-1.1-2.9
			C1598.8,354.1,1597.4,353.4,1595.3,352.6z"/>
		<path class="st2" d="M1465.4,233.5c0,3.6-0.6,6.3-1.9,7.8c-1.3,1.6-3.3,2.4-6.1,2.4c-2.6,0-4.6-0.8-5.9-2.4c-1.3-1.6-2-4.2-2-7.8
			v-29.6h-13.7v30.7c0,6.6,1.8,11.7,5.5,15.2c3.7,3.5,9,5.3,15.9,5.3c7,0,12.4-1.8,16.2-5.4c3.7-3.6,5.6-8.7,5.6-15.4v-30.4h-13.6
			V233.5z"/>
		<path class="st2" d="M1394.6,226.7c0,3.1,0.2,7.2,0.5,12.3h-0.2l-18.4-35.1h-17.8v50.5h12.1v-22.7c0-2.9-0.2-7.2-0.6-12.8h0.3
			l18.4,35.6h17.9v-50.5h-12.1V226.7z"/>
		<rect x="1315.5" y="203.9" class="st2" width="13.7" height="50.5"/>
		<path class="st2" d="M1268.9,215c0.8-0.6,2.1-0.9,3.9-0.9c3.4,0,7.5,1.1,12.2,3.2l4.2-10.5c-5.4-2.4-10.8-3.6-16-3.6
			c-5.9,0-10.6,1.3-13.9,3.9c-3.4,2.6-5.1,6.2-5.1,10.9c0,2.5,0.4,4.6,1.2,6.5c0.8,1.8,2,3.4,3.7,4.8c1.6,1.4,4.1,2.9,7.4,4.3
			c3.6,1.6,5.9,2.7,6.7,3.3c0.8,0.5,1.4,1,1.8,1.6c0.4,0.5,0.6,1.1,0.6,1.8c0,1.1-0.5,2-1.4,2.7c-0.9,0.7-2.4,1-4.5,1
			c-2.3,0-4.9-0.4-7.7-1.1c-2.8-0.8-5.5-1.8-8.1-3.1v12.2c2.5,1.2,4.8,2,7.1,2.5c2.3,0.5,5.1,0.7,8.5,0.7c4,0,7.5-0.7,10.5-2
			c3-1.4,5.3-3.2,6.9-5.7c1.6-2.4,2.4-5.2,2.4-8.3c0-3.4-0.8-6.2-2.5-8.5c-1.7-2.2-4.7-4.3-9.1-6.3c-4.5-2.1-7.3-3.5-8.3-4.3
			c-1-0.8-1.5-1.7-1.5-2.7C1267.7,216.4,1268.1,215.7,1268.9,215z"/>
		<path class="st2" d="M1521,215c0.8-0.6,2.1-0.9,3.9-0.9c3.4,0,7.5,1.1,12.2,3.2l4.2-10.5c-5.4-2.4-10.8-3.6-16-3.6
			c-5.9,0-10.6,1.3-13.9,3.9c-3.4,2.6-5.1,6.2-5.1,10.9c0,2.5,0.4,4.6,1.2,6.5c0.8,1.8,2,3.4,3.7,4.8c1.6,1.4,4.1,2.9,7.4,4.3
			c3.6,1.6,5.9,2.7,6.7,3.3c0.8,0.5,1.4,1,1.8,1.6c0.4,0.5,0.6,1.1,0.6,1.8c0,1.1-0.5,2-1.4,2.7c-0.9,0.7-2.4,1-4.5,1
			c-2.3,0-4.9-0.4-7.7-1.1c-2.8-0.8-5.5-1.8-8.1-3.1v12.2c2.5,1.2,4.8,2,7.1,2.5c2.3,0.5,5.1,0.7,8.5,0.7c4,0,7.5-0.7,10.5-2
			c3-1.4,5.3-3.2,6.9-5.7c1.6-2.4,2.4-5.2,2.4-8.3c0-3.4-0.8-6.2-2.5-8.5c-1.7-2.2-4.7-4.3-9.1-6.3c-4.5-2.1-7.3-3.5-8.3-4.3
			c-1-0.8-1.5-1.7-1.5-2.7C1519.7,216.4,1520.1,215.7,1521,215z"/>
		<rect x="1567.6" y="203.9" class="st2" width="13.7" height="50.5"/>
		<path class="st2" d="M1726.9,215c0.8-0.6,2.1-0.9,3.9-0.9c3.4,0,7.5,1.1,12.2,3.2l4.2-10.5c-5.4-2.4-10.8-3.6-16-3.6
			c-5.9,0-10.6,1.3-13.9,3.9c-3.4,2.6-5.1,6.2-5.1,10.9c0,2.5,0.4,4.6,1.2,6.5c0.8,1.8,2,3.4,3.7,4.8c1.6,1.4,4.1,2.9,7.4,4.3
			c3.6,1.6,5.9,2.7,6.7,3.3c0.8,0.5,1.4,1,1.8,1.6c0.4,0.5,0.6,1.1,0.6,1.8c0,1.1-0.5,2-1.4,2.7c-0.9,0.7-2.4,1-4.5,1
			c-2.3,0-4.9-0.4-7.7-1.1c-2.8-0.8-5.5-1.8-8.1-3.1v12.2c2.5,1.2,4.8,2,7.1,2.5c2.3,0.5,5.1,0.7,8.5,0.7c4,0,7.5-0.7,10.5-2
			c3-1.4,5.3-3.2,6.9-5.7c1.6-2.4,2.4-5.2,2.4-8.3c0-3.4-0.8-6.2-2.5-8.5c-1.7-2.2-4.7-4.3-9.1-6.3c-4.5-2.1-7.3-3.5-8.3-4.3
			c-1-0.8-1.5-1.7-1.5-2.7C1725.7,216.4,1726.1,215.7,1726.9,215z"/>
		<rect x="1671" y="203.9" class="st2" width="13.7" height="50.5"/>
		<polygon class="st2" points="1607,215.1 1619.4,215.1 1619.4,254.4 1633,254.4 1633,215.1 1645.3,215.1 1645.3,203.9 1607,203.9 
					"/>
	</g>
	<g>
		<circle class="st3" cx="953.5" cy="1279.9" r="171.3"/>
		<path class="st3" d="M880.8,1008.9c-42.1,0-75.9,26-87.4,62.8c15.5-27.1,44.7-45.1,79.7-45.1c4,0,8,0.2,11.9,0.7
			c-51.3,4.3-91.6,47.3-91.6,99.7c0,55.3,44.8,100.1,100.1,100.1c55.3,0,100.1-44.8,100.1-100.1c0-14-2.9-27.3-8.1-39.4
			C971.8,1042.6,928.8,1008.9,880.8,1008.9z"/>
		<circle class="st3" cx="1618.5" cy="935.4" r="247.1"/>
		<circle class="st3" cx="1635.8" cy="1121.7" r="272.6"/>
		<circle class="st3" cx="1226.4" cy="1344.7" r="283.8"/>
		<path class="st4" d="M1317.9,1125c-156.7,0-283.8,127.1-283.8,283.8c0,76,29.9,145,78.5,196c34.8,15.3,73.3,23.7,113.8,23.7
			c156.7,0,283.8-127.1,283.8-283.8c0-76-29.9-145-78.5-196C1396.8,1133.5,1358.3,1125,1317.9,1125z"/>
		<circle class="st4" cx="1449.6" cy="1060.6" r="321.3"/>
		<path class="st5" d="M1574.4,1206.2h-161.6c-165.8,0-301.4,135.6-301.4,301.4v492.9h764.3v-492.9
			C1875.8,1341.9,1740.2,1206.2,1574.4,1206.2z"/>
		<path class="st6" d="M1215.5,1280.3c-63.6,55.4-104,136.8-104,227.3v492.9h146.3v-675.2
			C1245.2,1308.9,1231.1,1293.8,1215.5,1280.3z"/>
		<path class="st5" d="M1272.1,1245.6c-64.7-23.7-136.4,9.5-160.2,74.2l-162.2,438.1c-23.7,64.7,9.5,136.4,74.2,160.2
			c64.7,23.7,136.4-9.5,160.2-74.2l162.2-438.1C1370.1,1341,1336.8,1269.3,1272.1,1245.6z"/>
		<path class="st5" d="M1889.1,1319.8c-23.7-64.7-95.4-97.9-160.2-74.2c-64.7,23.7-97.9,95.4-74.2,160.2l162.2,438.1
			c23.7,64.7,95.4,97.9,160.2,74.2c64.7-23.7,97.9-95.4,74.2-160.2L1889.1,1319.8z"/>
		<ellipse class="st7" cx="1492.8" cy="1352.8" rx="402.7" ry="230.4"/>
		<path class="st8" d="M1683.6,1266.5h-114.2c-28.3,0-51.5,23.2-51.5,51.5v264.8c81.3-2.9,156.1-19.5,217.2-45.9V1318
			C1735.1,1289.7,1711.9,1266.5,1683.6,1266.5z"/>
		<path class="st8" d="M1250.5,1168.8c-97.4,42-160.4,108.8-160.4,184c0,100.4,112.2,185.7,268.8,217.3
			c80.1-32.2,133.9-84.5,142-148.9C1513.6,1319.3,1407.9,1218.4,1250.5,1168.8z"/>
		<path class="st9" d="M1250.5,1168.8c-97.4,42-160.4,108.8-160.4,184c0,55.6,34.4,106.6,91.8,146.4
			c151.1-25.8,265-100.9,284.5-192.8C1424.1,1249,1347,1199.3,1250.5,1168.8z"/>
		<path class="st9" d="M1250.5,1168.8c-36.7,15.8-68.5,35.2-93.9,57.2c-8.8,16.6-13.5,34.2-13.5,52.4
			c0,99.8,141.4,180.7,315.9,180.7c10.7,0,21.3-0.3,31.7-0.9c5.1-11.8,8.5-24.2,10.1-37C1513.6,1319.3,1407.9,1218.4,1250.5,1168.8z
			"/>
		<path class="st7" d="M1727.3,1260.2h-114.2c-28.3,0-51.5,23.2-51.5,51.5V1996c0,1.5,0.1,3,0.2,4.5h216.8c0.1-1.5,0.2-3,0.2-4.5
			v-684.3C1778.8,1283.4,1755.6,1260.2,1727.3,1260.2z"/>
		<path class="st8" d="M1492.8,1122.4c-112.3,0-213.8,26.3-286.8,68.7c-11.3,18.2-17.5,37.8-17.5,58.2
			c0,96.1,136.2,174.1,304.3,174.1c168,0,304.3-77.9,304.3-174.1c0-20.4-6.2-40-17.5-58.2
			C1706.6,1148.7,1605.1,1122.4,1492.8,1122.4z"/>
		<ellipse class="st7" cx="1492.8" cy="1263.2" rx="315.9" ry="180.7"/>
		<path class="st8" d="M1386.5,1093c-122.1,25-209.5,91.8-209.5,170.2c0,65.8,61.5,123.4,153.4,155c122.1-25,209.6-91.8,209.6-170.2
			C1539.8,1182.2,1478.4,1124.6,1386.5,1093z"/>
		<path class="st9" d="M1386.5,1093c-121.5,24.8-208.6,91-209.5,168.9c57.6,35.1,139.4,57,230.2,57c40.9,0,80-4.4,115.8-12.5
			c10.9-18.3,16.9-38,16.9-58.4C1539.8,1182.2,1478.4,1124.6,1386.5,1093z"/>
		<path class="st8" d="M1492.8,1082.5c-88.1,0-167.7,20.6-225,53.9c-8.9,14.3-13.7,29.7-13.7,45.7c0,75.4,106.9,136.5,238.7,136.5
			c131.8,0,238.7-61.1,238.7-136.5c0-16-4.8-31.4-13.7-45.7C1660.5,1103.1,1580.9,1082.5,1492.8,1082.5z"/>
		<path class="st9" d="M1492.8,1082.5c-88.1,0-167.7,20.6-225,53.9c-8.9,14.3-13.7,29.7-13.7,45.7c0,68,87,124.4,200.8,134.8
			c147.7-12.8,261.9-84.2,267.8-171.5c-1.5-3.1-3.2-6.1-5-9C1660.5,1103.1,1580.9,1082.5,1492.8,1082.5z"/>
		<path class="st10" d="M1493.6,1041.6L1493.6,1041.6c-58.6,0-106.5,47.9-106.5,106.5v32.7c0,58.6,47.9,106.5,106.5,106.5h0
			c58.6,0,106.5-47.9,106.5-106.5v-32.7C1600.2,1089.5,1552.3,1041.6,1493.6,1041.6z"/>
		<path class="st4" d="M1493.6,474.8L1493.6,474.8c-167.5,0-304.5,137-304.5,304.5v43.9c0,167.5,137,304.5,304.5,304.5h0
			c167.5,0,304.5-137,304.5-304.5v-43.9C1798.1,611.8,1661.1,474.8,1493.6,474.8z"/>
		<g>
			<g>
				<ellipse class="st11" cx="1241.8" cy="882.4" rx="63.5" ry="66.1"/>
				<ellipse class="st12" cx="1241.8" cy="882.4" rx="30.6" ry="31.9"/>
			</g>
			<g>
				<ellipse class="st13" cx="1745.5" cy="882.4" rx="63.5" ry="66.1"/>
				<ellipse class="st12" cx="1745.5" cy="882.4" rx="30.6" ry="31.9"/>
			</g>
		</g>
		<path class="st11" d="M1493.6,582.3L1493.6,582.3c-144.2,0-262.1,117.9-262.1,262.1v128.7c0,144.1,117.9,262.1,262.1,262.1h0
			c144.1,0,262.1-117.9,262.1-262.1V844.4C1755.7,700.3,1637.8,582.3,1493.6,582.3z"/>
		<path class="st13" d="M1675.9,656.5c-41-26.6-89.8-42.2-142.1-42.2c-19.7,0-38.9,2.2-57.3,6.4c116.8,26.3,204.8,131.2,204.8,255.7
			v128.7c0,93.3-49.4,175.6-123.3,222c113.3-28.8,197.8-132.1,197.8-254.1V844.4C1755.7,770.9,1725.1,704.2,1675.9,656.5z"/>
		<path class="st14" d="M1551,588.7c-18.5-4.2-37.7-6.4-57.3-6.4h0c-144.1,0-262.1,117.9-262.1,262.1v128.7
			c0,144.2,117.9,262.1,262.1,262.1h0c19.7,0,38.9-2.2,57.3-6.4c-116.8-26.3-204.8-131.2-204.8-255.7V844.4
			C1346.2,719.9,1434.2,615,1551,588.7z"/>
		<path class="st4" d="M1231.6,844.4v65.9c36.3-17.9,61.5-55.4,61.5-98.4v-53.8c0-21.6-6.3-41.8-17.2-58.9
			C1247.9,740.8,1231.6,790.8,1231.6,844.4z"/>
		<path class="st11" d="M1550.3,1039.5H1444c-23.7,0-43,19.3-43,43v0c0,23.7,19.4,43,43,43h106.4c23.7,0,43-19.3,43-43v0
			C1593.3,1058.9,1574,1039.5,1550.3,1039.5z"/>
		<path class="st4" d="M1419.3,563.6c-65.9,0-156.2,59.7-201.8,133.3s-29.2,133.3,36.7,133.3c65.9,0,156.2-59.7,201.8-133.3
			C1501.6,623.3,1485.1,563.6,1419.3,563.6z"/>
		<path class="st3" d="M1530.2,491.8c-82,5.5-102.5,84.3-45.7,175.9c56.8,91.6,169.3,161.4,251.4,155.9
			c82-5.5,102.5-84.3,45.7-175.9C1724.7,556,1612.2,486.2,1530.2,491.8z"/>
		<g>
			<g>
				<path class="st14" d="M1436.1,889.6l-122.3,4.4C1336.6,964.1,1421,980.9,1436.1,889.6z"/>
				<path class="st15" d="M1436.1,889.6l-122.3,2.7C1358.3,958.3,1421,945.4,1436.1,889.6z"/>
				<path class="st16" d="M1313.8,892.3c19.3,28.6,42,42.4,62.8,44.3c-6.1-13-10.9-29.1-11.9-45.4L1313.8,892.3z"/>
				<path class="st17" d="M1313.8,892.3l122.7-2.7C1422.8,819.3,1337.7,847.1,1313.8,892.3z"/>
				<path class="st18" d="M1313.8,892.3l50.9-1.1c-0.9-14.5,1.1-29.3,8-42.3C1348.7,854.4,1324.8,871.5,1313.8,892.3z"/>
				<path class="st19" d="M1313.8,892.3c36.2,18.6,100.7,22.2,122.9-2.8C1423.4,856.7,1337.8,871.4,1313.8,892.3z"/>
				<path class="st20" d="M1350.2,875.8c-1.2,4.5-1.8,9.1-1.8,14c0,5,0.7,9.9,1.9,14.5c33.2,6.3,70.5,3,86.3-14.8
					C1427.5,866.9,1384.1,866.9,1350.2,875.8z"/>
				<g>
					<path class="st21" d="M1398.5,870.5c-11.8-0.7-25,0.4-37.6,2.9c-3.7,4.5-5.9,10.2-5.9,16.5c0,6.1,2.1,11.7,5.6,16.1
						c14.1,1.8,28.4,1.8,41.1-0.2c3.4-4.4,5.4-9.9,5.4-15.9C1407.1,882.2,1403.8,875.2,1398.5,870.5z"/>
					<circle class="st22" cx="1381.1" cy="889.8" r="15.7"/>
					<path class="st23" d="M1379,895.4c-1.2-0.4-2.2-1.2-2.8-2.2c-0.7-1-1.1-2.1-1.1-3.4l0-0.5c0.1-1.7-1.1-3.2-2.9-3.4
						c-1.7-0.1-3.2,1.1-3.4,2.9c0,0.3,0,0.7,0,1c0,2.5,0.8,5,2.2,7c1.4,2,3.4,3.6,5.8,4.5c1.6,0.6,3.4-0.2,4-1.9
						C1381.5,897.8,1380.6,896,1379,895.4z"/>
				</g>
				<path class="st21" d="M1436.2,880.3c-9.5-10.9-27.9-14.9-48.1-14.5c-28.4,0.6-61.1,14.9-74.3,26.5c21.2-9.4,38.2-16.7,74.5-17.5
					c17.7-0.4,33.6,2.8,41.1,11.4h0c1.3,1.5,2.3,3.1,3.1,5c0.9,2.3,3.6,3.4,5.9,2.5c2.3-0.9,3.4-3.6,2.5-5.9
					C1439.7,885,1438.1,882.5,1436.2,880.3z"/>
			</g>
			<g>
				<path class="st14" d="M1673.5,894l-122.3-4.4C1566.3,980.9,1650.7,964.1,1673.5,894z"/>
				<path class="st15" d="M1673.5,892.3l-122.3-2.7C1566.3,945.4,1629,958.3,1673.5,892.3z"/>
				<path class="st16" d="M1610.7,936.6c20.8-1.9,43.5-15.7,62.8-44.3l-50.9-1.1C1621.6,907.5,1616.8,923.6,1610.7,936.6z"/>
				<path class="st17" d="M1550.8,889.6l122.7,2.7C1649.6,847.1,1564.5,819.3,1550.8,889.6z"/>
				<path class="st18" d="M1614.7,848.9c6.8,13,8.9,27.8,8,42.3l50.9,1.1C1662.5,871.5,1638.6,854.4,1614.7,848.9z"/>
				<path class="st19" d="M1550.7,889.5c22.2,25,86.6,21.4,122.9,2.8C1649.5,871.4,1563.9,856.7,1550.7,889.5z"/>
				<path class="st20" d="M1550.7,889.5c15.8,17.9,53.1,21.1,86.3,14.8c1.2-4.6,1.9-9.5,1.9-14.5c0-4.8-0.6-9.5-1.8-14
					C1603.2,866.9,1559.8,866.9,1550.7,889.5z"/>
				<g>
					<path class="st21" d="M1588.8,870.5c-5.3,4.8-8.6,11.7-8.6,19.3c0,6,2,11.5,5.4,15.9c12.7,2.1,27,2,41.1,0.2
						c3.5-4.4,5.6-10,5.6-16.1c0-6.2-2.2-12-5.9-16.5C1613.8,870.9,1600.7,869.7,1588.8,870.5z"/>
					<circle class="st22" cx="1606.2" cy="889.8" r="15.7"/>
					<path class="st23" d="M1615,886c-1.7,0.1-3,1.6-2.9,3.4l0,0.5c0,1.3-0.4,2.4-1.1,3.4c-0.7,1-1.7,1.7-2.8,2.2
						c-1.6,0.6-2.4,2.4-1.9,4c0.6,1.6,2.4,2.4,4,1.9c2.4-0.9,4.4-2.5,5.8-4.5c1.4-2,2.2-4.4,2.2-7c0-0.3,0-0.6,0-1
						C1618.2,887.1,1616.7,885.9,1615,886z"/>
				</g>
				<path class="st21" d="M1551.1,880.3c-1.9,2.3-3.5,4.8-4.6,7.5c-0.9,2.3,0.2,4.9,2.5,5.9c2.3,0.9,4.9-0.2,5.9-2.5
					c0.8-1.9,1.8-3.5,3.1-5h0c7.5-8.6,23.4-11.8,41.1-11.4c36.3,0.8,53.3,8.1,74.5,17.5c-13.2-11.6-45.9-25.9-74.3-26.5
					C1579,865.3,1560.6,869.4,1551.1,880.3z"/>
			</g>
		</g>
		<path class="st14" d="M1513.1,1108.9h-38.9c-6.9,0-12.5,7.5-12.5,16.7c0,9.2,5.6,16.7,12.5,16.7h38.9c6.9,0,12.5-7.5,12.5-16.7
			C1525.6,1116.4,1520,1108.9,1513.1,1108.9z"/>
		<path class="st12" d="M1519.5,1092.2h-51.8c-9.2,0-16.7,7.5-16.7,16.7s7.5,16.7,16.7,16.7h51.8c9.2,0,16.7-7.5,16.7-16.7
			S1528.7,1092.2,1519.5,1092.2z"/>
		<path class="st14" d="M1391.7,822.5c-2.3,4.7,1.4,6.7,3.1,7.1c42.7,10.4,47.7,58.4,68.3,37.7c8.4-8.4,22.8-26.4,15.1-39.3
			C1464.3,805.1,1401.9,801.9,1391.7,822.5z"/>
		<path class="st24" d="M1437,820.1c-8-0.8-17-0.7-24.8,1.3c-1,0.3-2.4,0.7-3.9,1.2c11.5,4.8,21,12.4,29.8,21.9
			c2.3,2.5,12,14.5,15.4,16.7c0.7-0.5,1.6-1.3,2-1.7c4.1-4.1,17.4-19.5,13.4-26C1463.7,825,1446.1,821.1,1437,820.1z"/>
		<path class="st14" d="M1433.7,925.3c-5.6,17-20.5,29-43.7,37c-45.3,15.6-25.2,70.3,12.9,82.8c36.5,12,55-18.5,51.9-121.9
			C1454.5,913.3,1440.9,903.1,1433.7,925.3z"/>
		<path class="st24" d="M1444,928.6c-7.6,23.3-28.4,36.3-50.4,43.9c-8.2,2.8-15.7,7.9-18,16.7c-2.3,8.7,1,18.4,5.6,25.8
			c5.8,9.1,14.8,16.4,25,19.8c5,1.6,11.1,2.9,16.2,1c22.9-8.7,22.3-81.9,21.7-107.5C1444.1,928.4,1444,928.5,1444,928.6z"/>
		<path class="st14" d="M1509.1,828c-7.8,12.9,6.6,30.9,15.1,39.3c20.7,20.7,25.6-27.3,68.3-37.7c1.7-0.4,5.4-2.4,3.1-7.1
			C1585.4,801.9,1523,805.1,1509.1,828z"/>
		<path class="st24" d="M1550.3,820.1c-9.2,1-26.7,4.9-31.9,13.5c-4,6.5,9.3,21.9,13.5,26c0.4,0.4,1.3,1.2,2,1.7
			c3.4-2.3,13.1-14.2,15.4-16.7c8.8-9.6,18.3-17.1,29.8-21.9c-1.5-0.6-2.9-1-3.9-1.2C1567.4,819.4,1558.3,819.2,1550.3,820.1z"/>
		<path class="st14" d="M1597.3,962.3c-23.1-8-38.1-20-43.7-37c-7.2-22.2-20.8-11.9-21.1-2c-3.1,103.4,15.4,133.9,51.9,121.9
			C1622.5,1032.6,1642.6,977.9,1597.3,962.3z"/>
		<path class="st24" d="M1593.7,972.5c-22.1-7.6-42.8-20.6-50.4-43.9c0-0.1-0.1-0.2-0.1-0.3c-0.6,25.6-1.2,98.8,21.7,107.5
			c5.1,1.9,11.2,0.7,16.2-1c10.3-3.4,19.3-10.8,25.1-19.8c4.7-7.4,7.9-17.1,5.6-25.8C1609.4,980.4,1602,975.3,1593.7,972.5z"/>
		<path class="st14" d="M1493.6,853.9c-10.1,3-10.9,29.2-20.5,49.8c-6.2,13.4,7.3,15.8,20.5,15c13.2,0.8,26.7-1.6,20.5-15
			C1504.6,883,1503.7,856.8,1493.6,853.9z"/>
		<path class="st24" d="M1493.8,875.6c0-0.2-0.1-0.3-0.2-0.5c-0.1,0.2-0.1,0.4-0.2,0.5c-2.3,8.4-4.4,16.8-7.4,25.1
			c-0.9,2.3-1.8,4.6-2.8,6.8c3.1,0.5,7.8,0.4,9.7,0.3c0.5,0,0.9,0,1.3,0c1.9,0.1,6.6,0.2,9.7-0.3c-1-2.2-1.9-4.5-2.8-6.8
			C1498.2,892.4,1496.1,884,1493.8,875.6z"/>
		<path class="st3" d="M1694.3,758.1v53.8c0,43,25.1,80.5,61.5,98.4v-65.9c0-53.6-16.3-103.6-44.2-145.2
			C1700.6,716.2,1694.3,736.4,1694.3,758.1z"/>
		<path class="st3" d="M1777.3,935.2c22.1,42,32.3,91.6,27,144.8c-15.3,150.5-149.7,272.6-300.2,272.6c-49.6,0-94.8-13.3-132.6-36.4
			c40.4,76.7,120.7,127.8,218,127.8c150.5,0,284.9-122,300.2-272.6C1899.9,1070.4,1854,982.3,1777.3,935.2z"/>
		<path class="st25" d="M1871.1,1118.8c-45.3,144.2-216.4,261.1-382.1,261.1c-28.2,0-54.5-3.4-78.4-9.7
			c44.1,45.7,106.8,73.7,178.9,73.7c150.5,0,284.9-122,300.2-272.6c3.6-35.2,0.3-68.8-8.7-99.6
			C1879.4,1087,1876.1,1102.7,1871.1,1118.8z"/>
		<path class="st3" d="M1741.1,1067c13.4,21,19.6,46,16.4,72.6c-9.3,75.5-90.8,136.7-182.1,136.7c-30.1,0-57.5-6.7-80.4-18.3
			c24.5,38.5,73.2,64.1,132.3,64.1c91.3,0,172.9-61.2,182.1-136.7C1815.5,1134.9,1787.7,1090.7,1741.1,1067z"/>
		<path class="st4" d="M1417.6,733.7c-56.4,67.6-151.1,122.4-211.6,122.4s-63.8-54.8-7.5-122.4c3.3-3.9,6.6-7.8,10.1-11.6
			c-10.4,10-20.2,20.3-29.1,31c-61.4,73.6-57.7,133.3,8.1,133.3c65.9,0,169-59.7,230.4-133.3c39.1-46.9,51.8-88.2,38.9-111.9
			C1461.4,663.7,1448.4,696.8,1417.6,733.7z"/>
		<circle class="st14" cx="1594.9" cy="1841.4" r="145.9"/>
		<g>
			<path class="st5" d="M1557.8,1749.4l-113.4-10.5c-63.9-5.8-120.4,41.3-126.2,105.3s41.3,120.4,105.3,126.2l113.4,10.5
				c63.9,5.8,120.4-41.3,126.2-105.3C1668.8,1811.7,1621.7,1755.2,1557.8,1749.4z"/>
			<path class="st26" d="M1452.6,1824.4c0.3,4.6,4.2,8.1,8.8,7.8l193.1-11.9c-2.4-5.6-5.1-11-8.3-16.1l-185.8,11.5
				C1455.8,1815.9,1452.3,1819.8,1452.6,1824.4z"/>
			<path class="st26" d="M1446.6,1795l183.5-11.3c-5.7-5.8-12-11-18.8-15.5l-165.7,10.2c-4.6,0.3-8.1,4.2-7.8,8.8
				C1438.1,1791.7,1442,1795.2,1446.6,1795z"/>
			<path class="st26" d="M1435.3,1910.9c-1.3,4.4,1.1,9,5.5,10.4l157.8,48.3c6.6-3.3,12.9-7.2,18.8-11.6l-171.8-52.6
				C1441.2,1904,1436.6,1906.5,1435.3,1910.9z"/>
			<path class="st26" d="M1451.8,1894.5c-0.8,4.5,2.3,8.8,6.8,9.6l181.3,31.2c3.6-4.8,6.9-9.9,9.8-15.2l-188.3-32.4
				C1456.9,1887,1452.6,1890,1451.8,1894.5z"/>
			<path class="st26" d="M1464.6,1840.5c-4.6,0-8.3,3.7-8.4,8.2c0,4.6,3.7,8.3,8.2,8.4l198.8,2c-0.3-5.6-1-11.2-2.1-16.6
				L1464.6,1840.5z"/>
			<path class="st26" d="M1452.8,1866.6c-0.5,4.6,2.7,8.7,7.3,9.2l198.3,23.5c1.6-5.3,2.9-10.7,3.7-16.3l-200-23.7
				C1457.5,1858.7,1453.4,1862,1452.8,1866.6z"/>
		</g>
		<path class="st27" d="M1526.5,1736.1l-443.4-58.8c-68.2-8.9-130.8,39.2-139.6,107.4c-8.9,68.2,39.2,130.8,107.4,139.6l443.4,58.8
			c68.2,8.9,130.8-39.2,139.6-107.4C1642.8,1807.5,1594.7,1745,1526.5,1736.1z"/>
		<path class="st6" d="M947.8,1764.7L947.8,1764.7c-2,6.4-3.5,13.1-4.4,20c-8.9,68.2,39.2,130.8,107.4,139.6l2.8,0.4
			c3-11.3,4.7-23.4,4.7-35.8C1058.3,1820.3,1008.8,1764.7,947.8,1764.7z"/>
		<g>
			<circle class="st11" cx="1507.8" cy="1755.1" r="145.9"/>
			<g>
				<path class="st5" d="M1662.8,1659.1l-113.4-10.5c-63.9-5.8-120.4,41.3-126.2,105.3c-5.8,63.9,41.3,120.4,105.3,126.2l113.4,10.5
					c63.9,5.8,120.4-41.3,126.2-105.3C1773.9,1721.4,1726.8,1664.8,1662.8,1659.1z"/>
				<path class="st26" d="M1633.4,1763c0.5-4.6-2.7-8.7-7.3-9.2l-198.3-23.5c-1.6,5.3-2.9,10.7-3.7,16.3l200,23.7
					C1628.7,1770.8,1632.9,1767.5,1633.4,1763z"/>
				<path class="st26" d="M1634.4,1735c0.8-4.5-2.3-8.8-6.8-9.6l-181.3-31.2c-3.6,4.8-6.9,9.9-9.8,15.2l188.3,32.4
					C1629.3,1742.6,1633.6,1739.5,1634.4,1735z"/>
				<path class="st26" d="M1630,1780.7c0-4.6-3.7-8.3-8.2-8.4l-198.8-2c0.3,5.6,1,11.2,2.1,16.6l196.7,2
					C1626.2,1789,1629.9,1785.3,1630,1780.7z"/>
				<path class="st26" d="M1639.7,1834.6l-183.5,11.3c5.7,5.8,12,11,18.8,15.5l165.7-10.2c4.6-0.3,8.1-4.2,7.8-8.8
					C1648.2,1837.8,1644.2,1834.3,1639.7,1834.6z"/>
				<path class="st26" d="M1645.4,1708.3l-157.8-48.3c-6.6,3.3-12.9,7.2-18.8,11.6l171.8,52.6c4.4,1.3,9-1.1,10.4-5.5
					C1652.3,1714.3,1649.8,1709.6,1645.4,1708.3z"/>
				<path class="st26" d="M1633.6,1805.1c-0.3-4.6-4.2-8.1-8.8-7.8l-193.1,11.9c2.4,5.6,5.1,11,8.3,16.1l185.8-11.5
					C1630.4,1813.6,1633.9,1809.7,1633.6,1805.1z"/>
			</g>
			<g>
				<path class="st27" d="M1945.3,1676.8l-327.1-30.2c-68.5-6.2-129.1,44.3-135.3,112.8s44.3,129.1,112.8,135.3l327.1,30.2
					c68.5,6.2,129.1-44.3,135.3-112.8C2064.3,1743.6,2013.8,1683,1945.3,1676.8z"/>
				<path class="st26" d="M1929.4,1925.3c65.7,2.5,122.6-46.9,128.6-113.2c0.2-2.7,0.4-5.4,0.5-8.1c-6-1.1-12.2-1.8-18.6-1.8
					C1979.3,1802.2,1930,1857.2,1929.4,1925.3z"/>
			</g>
		</g>
		<path class="st3" d="M1401.2,810.1c-6,3.8-25.6,13.4-48.7,18.2c-13.7,2.9-28.6,4-42.1,1.1c-4.5-1-8.9,1.9-9.9,6.4
			c-1,4.5,1.9,8.9,6.4,9.9c16,3.5,33.2,2.2,49-1.1c25.4-5.3,47.4-16.1,54.2-20.4c3.9-2.4,5-7.6,2.6-11.5
			C1410.2,808.9,1405.1,807.7,1401.2,810.1z"/>
		<path class="st3" d="M1676.8,829.4c-13.5,3-28.3,1.8-42.1-1.1c-23.1-4.8-42.7-14.4-48.7-18.2c-3.9-2.4-9-1.3-11.5,2.6
			c-2.4,3.9-1.3,9,2.6,11.5c6.8,4.3,28.8,15.1,54.2,20.4c15.8,3.3,33,4.6,49,1.1c4.5-1,7.4-5.4,6.4-9.9
			C1685.8,831.3,1681.3,828.4,1676.8,829.4z"/>
		<path class="st28" d="M1776.8,1575.4c-5.6-6.4-15.3-7.2-21.8-1.6c-6.4,5.6-7.2,15.3-1.6,21.8l13,14.9c5.6,6.4,15.3,7.2,21.8,1.6
			c6.4-5.6,7.2-15.3,1.6-21.8L1776.8,1575.4z"/>
		<path class="st28" d="M1584.8,1526.9c-6.4-5.6-16.2-4.9-21.8,1.6l-13,14.9c-5.6,6.4-4.9,16.2,1.6,21.8c6.4,5.6,16.2,4.9,21.8-1.6
			l13-14.9C1591.9,1542.3,1591.2,1532.5,1584.8,1526.9z"/>
		<path class="st28" d="M1859.7,1436.8c-5.6-6.4-15.3-7.2-21.8-1.6c-6.4,5.6-7.2,15.3-1.6,21.8l13,14.9c5.6,6.4,15.3,7.2,21.8,1.6
			c6.4-5.6,7.2-15.3,1.6-21.8L1859.7,1436.8z"/>
		<path class="st8" d="M1311.7,1525c-6.4-5.6-16.2-4.9-21.8,1.6l-13,14.9c-5.6,6.4-4.9,16.2,1.6,21.8c6.4,5.6,16.2,4.9,21.8-1.6
			l13-14.9C1318.8,1540.3,1318.1,1530.6,1311.7,1525z"/>
		<path class="st9" d="M1131.2,1272.6l-16-11.6c-6.9-5-16.5-3.5-21.6,3.4c-5,6.9-3.5,16.5,3.4,21.6l16,11.6c6.9,5,16.5,3.5,21.6-3.4
			C1139.6,1287.3,1138.1,1277.7,1131.2,1272.6z"/>
		<path class="st9" d="M1242.8,1160l-16-11.6c-6.9-5-16.5-3.5-21.6,3.4c-5,6.9-3.5,16.5,3.4,21.6l16,11.6c6.9,5,16.5,3.5,21.6-3.4
			C1251.2,1174.7,1249.7,1165,1242.8,1160z"/>
		<path class="st4" d="M1556.4,689.6c-56.8-91.6-36.3-170.4,45.7-175.9c9.3-0.6,19-0.3,28.9,0.9c-34.9-16.3-70-24.9-100.8-22.8
			c-82,5.5-102.5,84.3-45.7,175.9c50.4,81.2,144.6,145.3,222.4,154.9C1649,795.5,1591.9,746.8,1556.4,689.6z"/>
		<path class="st25" d="M1624.2,568.4c-43.1,2.9-53.9,44.3-24,92.4c29.8,48.1,89,84.8,132.1,81.9c43.1-2.9,53.9-44.3,24-92.4
			C1726.4,602.1,1667.3,565.4,1624.2,568.4z"/>
		<path class="st29" d="M1447.7,1060.7c0,0-36.4,99.9-17.7,99.5c18.8-0.4,18.8-10.7,32.8-5.3c14.1,5.3,25.8,7.8,23.4-3.3
			S1447.7,1060.7,1447.7,1060.7z"/>
		<path class="st30" d="M1476.1,999.7l-14.3,1.5c0,0-57.9,116.2-59.9,130.3c-2,14.2,20,19.3,25.5,7.4c5.5-11.9,24.9-8.4,30.8,3.3
			c5.9,11.7,35.8,5.4,34.7-3.7L1476.1,999.7z"/>
		<path class="st29" d="M1401.8,1131.5c-2,14.2,20,19.3,25.5,7.4c1.4-3.2,3.9-5.2,6.8-6.4c-13-37.7,27.7-131.4,27.7-131.4
			S1403.8,1117.3,1401.8,1131.5z"/>
		<g>
			<path class="st12" d="M1494,932.8c-33,0-48.6,22.1-48.6,41.1c0,21,21.8,38.2,48.6,38.2c26.7,0,48.6-17.2,48.6-38.2
				C1542.6,955,1527,932.8,1494,932.8z"/>
			<path class="st31" d="M1507.8,940.3c-9.3-0.5-16.8,4.4-16.8,10.9c0,6.5,7.5,12.2,16.8,12.7c9.3,0.5,16.8-4.4,16.8-10.9
				C1524.6,946.5,1517.1,940.8,1507.8,940.3z"/>
			<path class="st32" d="M1494,995.7c-24.8,0-45.3-11.7-48.2-26.7c-0.2,1.7-0.3,3.3-0.3,4.9c0,21,21.8,38.2,48.6,38.2
				c26.7,0,48.6-17.2,48.6-38.2c0-1.6-0.1-3.3-0.3-4.9C1539.3,984,1518.8,995.7,1494,995.7z"/>
			<g>
				<path class="st33" d="M1467.4,995.3c-3.5,0-7,1.4-10,3.7c5.4,4.8,12.3,8.6,20.1,10.9l0.1-0.4
					C1479.4,1001.6,1474.8,995.3,1467.4,995.3z"/>
				<path class="st33" d="M1510.4,1009.5l0.1,0.4c7.8-2.2,14.7-6,20.1-10.9c-2.9-2.3-6.5-3.7-10-3.7
					C1513.2,995.3,1508.6,1001.6,1510.4,1009.5z"/>
			</g>
		</g>
	</g>
	<g>
		<path class="st2" d="M869.4,742.5H765.2c-11,0-21.1,4.5-28.4,11.8c-7.3,7.3-11.8,17.3-11.8,28.4c0,11,4.5,21.1,11.8,28.4
			c7.3,7.3,17.3,11.8,28.4,11.8h104.2c11,0,21.1-4.5,28.4-11.8c7.3-7.3,11.8-17.3,11.8-28.4s-4.5-21.1-11.8-28.4
			S880.4,742.5,869.4,742.5z M886,799.2c-4.3,4.3-10.1,6.9-16.6,6.9H765.2c-6.5,0-12.3-2.6-16.6-6.9s-6.9-10.1-6.9-16.6
			s2.6-12.3,6.9-16.6c4.3-4.3,10.1-6.9,16.6-6.9h104.2c6.4,0,12.3,2.6,16.6,6.9c4.3,4.3,6.9,10.1,6.9,16.6
			C892.9,789.1,890.2,794.9,886,799.2z"/>
		<path class="st2" d="M817.3,742.5c-4.6,0-8.3,3.7-8.3,8.3v63.6c0,4.6,3.7,8.3,8.3,8.3c4.6,0,8.3-3.7,8.3-8.3v-63.6
			C825.6,746.2,821.9,742.5,817.3,742.5z"/>
		<path class="st2" d="M784.2,761h-18.1c-5.9,0-11.3,2.4-15.2,6.3s-6.3,9.3-6.3,15.2c0,4.6,3.7,8.3,8.3,8.3c4.6,0,8.3-3.7,8.3-8.3
			c0-1.3,0.6-2.6,1.4-3.5c0.9-0.9,2.1-1.4,3.5-1.4h18.1c4.6,0,8.3-3.7,8.3-8.3C792.5,764.8,788.8,761,784.2,761z"/>
	</g>
	<g>
		<path class="st2" d="M1996.2,849.5c-16.5,0-31.4,6.7-42.1,17.5c-10.8,10.8-17.5,25.7-17.5,42.1c0,16.5,6.7,31.4,17.5,42.1
			c10.8,10.8,25.7,17.5,42.1,17.5c16.5,0,31.4-6.7,42.1-17.5c10.8-10.8,17.5-25.7,17.5-42.1c0-16.5-6.7-31.4-17.5-42.1
			C2027.6,856.1,2012.7,849.5,1996.2,849.5z M2026.6,939.4c-7.8,7.8-18.5,12.6-30.4,12.6c-11.9,0-22.6-4.8-30.4-12.6
			c-7.8-7.8-12.6-18.5-12.6-30.4c0-11.9,4.8-22.6,12.6-30.4c7.8-7.8,18.5-12.6,30.4-12.6c11.9,0,22.6,4.8,30.4,12.6
			c7.8,7.8,12.6,18.5,12.6,30.4C2039.2,920.9,2034.4,931.7,2026.6,939.4z"/>
		<path class="st2" d="M1996.2,875.1c-4.6,0-8.3,3.7-8.3,8.3v51.3c0,4.6,3.7,8.3,8.3,8.3c4.6,0,8.3-3.7,8.3-8.3v-51.3
			C2004.6,878.8,2000.8,875.1,1996.2,875.1z"/>
	</g>
	<g>
		<path class="st2" d="M2197.7,1194.2c-3.5-3.5-8.4-5.7-13.8-5.7h-107.7c-5.3,0-10.2,2.2-13.7,5.7l0,0c-3.5,3.5-5.7,8.4-5.7,13.7
			v39.3c0,5.4,2.2,10.2,5.7,13.8h0c3.5,3.5,8.4,5.7,13.7,5.7H2184c5.4,0,10.2-2.2,13.8-5.7c3.5-3.5,5.7-8.4,5.7-13.8v-39.3
			C2203.4,1202.6,2201.2,1197.7,2197.7,1194.2L2197.7,1194.2z M2186.8,1247.2c0,0.8-0.3,1.5-0.8,2c-0.5,0.5-1.2,0.8-2,0.8h-107.7
			c-0.8,0-1.5-0.3-2-0.8l0,0c-0.5-0.5-0.8-1.2-0.8-2v-39.3c0-0.8,0.3-1.5,0.8-2l0,0c0.5-0.5,1.2-0.8,2-0.8H2184c0.8,0,1.5,0.3,2,0.8
			l0,0c0.5,0.5,0.8,1.2,0.8,2V1247.2z"/>
		<path class="st2" d="M2192.4,1259.2c-5.7-5.7-13.5-9.2-22-9.2h-80.5c-8.6,0-16.4,3.5-22,9.2c-5.7,5.7-9.2,13.5-9.2,22v103
			c0,8.6,3.5,16.4,9.2,22c5.7,5.7,13.5,9.2,22,9.2h80.5c8.6,0,16.3-3.5,22-9.2l0,0c5.7-5.7,9.2-13.5,9.2-22v-103
			C2201.6,1272.7,2198.1,1264.9,2192.4,1259.2L2192.4,1259.2z M2184.9,1384.2c0,4-1.6,7.6-4.2,10.3l0,0c-2.6,2.6-6.2,4.2-10.3,4.2
			h-80.5c-4,0-7.6-1.6-10.3-4.3c-2.6-2.6-4.3-6.3-4.3-10.3v-103c0-4,1.6-7.6,4.3-10.3c2.6-2.6,6.3-4.3,10.3-4.3h80.5
			c4,0,7.6,1.6,10.3,4.2l0,0c2.6,2.6,4.2,6.2,4.2,10.3V1384.2z"/>
		<path class="st2" d="M2168.3,1194.2c-3.5-3.5-8.4-5.7-13.7-5.7h-48.9c-5.3,0-10.2,2.2-13.7,5.7l0,0c-3.5,3.5-5.7,8.4-5.7,13.7
			v39.3c0,5.4,2.2,10.2,5.7,13.8h0c3.5,3.5,8.4,5.7,13.7,5.7h48.9c5.3,0,10.2-2.2,13.7-5.7l0,0c3.5-3.5,5.7-8.4,5.7-13.7v-39.3
			C2174.1,1202.6,2171.9,1197.7,2168.3,1194.2L2168.3,1194.2z M2157.4,1247.2c0,0.8-0.3,1.5-0.8,2l0,0c-0.5,0.5-1.2,0.8-2,0.8h-48.9
			c-0.8,0-1.5-0.3-2-0.8l0,0c-0.5-0.5-0.8-1.2-0.8-2v-39.3c0-0.8,0.3-1.5,0.8-2l0,0c0.5-0.5,1.2-0.8,2-0.8h48.9c0.8,0,1.5,0.3,2,0.8
			l0,0c0.5,0.5,0.8,1.2,0.8,2V1247.2z"/>
		<path class="st2" d="M2130.1,1188.4c-4.6,0-8.3,3.7-8.3,8.3v61.6c0,4.6,3.7,8.3,8.3,8.3s8.3-3.7,8.3-8.3v-61.6
			C2138.4,1192.2,2134.7,1188.4,2130.1,1188.4z"/>
		<path class="st2" d="M2149.4,1321.4h-8.1v-8.1c0-6.2-5.1-11.3-11.3-11.3c-6.2,0-11.3,5.1-11.3,11.3v8.1h-8.1
			c-6.2,0-11.3,5.1-11.3,11.3c0,6.2,5.1,11.3,11.3,11.3h8.1v8.1c0,6.2,5.1,11.3,11.3,11.3c6.2,0,11.3-5.1,11.3-11.3v-8.1h8.1
			c6.2,0,11.3-5.1,11.3-11.3C2160.7,1326.5,2155.6,1321.4,2149.4,1321.4z"/>
	</g>
	<g>
		<path class="st2" d="M851,1625.2H729c-10.4,0-19.9,4.3-26.8,11.1c-6.9,6.9-11.1,16.4-11.1,26.8v64.5c0,10.4,4.3,19.9,11.1,26.8
			c6.9,6.9,16.4,11.1,26.8,11.1h122c10.4,0,19.9-4.3,26.8-11.1c6.9-6.9,11.1-16.4,11.1-26.8v-64.5c0-10.4-4.3-19.9-11.1-26.8
			C871,1629.4,861.5,1625.2,851,1625.2z M875.5,1727.6c0,6.7-2.8,12.8-7.2,17.3c-4.4,4.4-10.5,7.2-17.3,7.2H729
			c-6.7,0-12.8-2.8-17.3-7.2c-4.4-4.4-7.2-10.5-7.2-17.3v-64.5c0-6.7,2.8-12.8,7.2-17.3c4.4-4.4,10.5-7.2,17.3-7.2h122
			c6.7,0,12.8,2.8,17.3,7.2c4.4,4.4,7.2,10.5,7.2,17.3V1727.6z"/>
		<path class="st2" d="M804.3,1588.5h-28.4c-6.9,0-13.2,2.8-17.7,7.4c-4.5,4.5-7.4,10.8-7.4,17.7v25.1h71.8h6.7v-25.1
			c0-6.9-2.8-13.2-7.4-17.7C817.4,1591.3,811.2,1588.5,804.3,1588.5z M815.9,1625.2h-51.6v-11.6c0-3.2,1.3-6.1,3.4-8.2
			c2.1-2.1,5-3.4,8.2-3.4h28.4c3.2,0,6.1,1.3,8.2,3.4c2.1,2.1,3.4,5,3.4,8.2V1625.2z"/>
		<path class="st2" d="M805.7,1686.2h-6.5v-6.5c0-5-4.1-9.1-9.1-9.1c-5,0-9.1,4.1-9.1,9.1v6.5h-6.5c-5,0-9.1,4.1-9.1,9.1
			s4.1,9.1,9.1,9.1h6.5v6.5c0,5,4.1,9.1,9.1,9.1c5,0,9.1-4.1,9.1-9.1v-6.5h6.5c5,0,9.1-4.1,9.1-9.1S810.7,1686.2,805.7,1686.2z"/>
	</g>
	<g>
		<path class="st2" d="M2475.7,999.8h-530c-4.6,0-8.3,3.7-8.3,8.3c0,4.6,3.7,8.3,8.3,8.3h530c4.6,0,8.3-3.7,8.3-8.3
			C2484.1,1003.5,2480.3,999.8,2475.7,999.8z"/>
		<path class="st2" d="M2587,999.8h-57.5c-4.6,0-8.3,3.7-8.3,8.3c0,4.6,3.7,8.3,8.3,8.3h57.5c4.6,0,8.3-3.7,8.3-8.3
			C2595.3,1003.5,2591.6,999.8,2587,999.8z"/>
	</g>
	<g>
		<path class="st2" d="M933.2,1466H777.5c-4.6,0-8.3,3.7-8.3,8.3c0,4.6,3.7,8.3,8.3,8.3h155.8c4.6,0,8.3-3.7,8.3-8.3
			C941.5,1469.8,937.8,1466,933.2,1466z"/>
		<path class="st2" d="M741,1466h-16.9c-4.6,0-8.3,3.7-8.3,8.3c0,4.6,3.7,8.3,8.3,8.3H741c4.6,0,8.3-3.7,8.3-8.3
			C749.4,1469.8,745.6,1466,741,1466z"/>
	</g>
	<g>
		<path class="st1" d="M2267.9,646.9l-5.1,0.4c-0.4-2-1-3.6-1.8-4.8c-8-12.2-17.5-22.9-27.4-31.6c0.2-0.2,0.4-0.5,0.5-0.7l6.2-9.7
			c2.5-3.9,1.3-9-2.5-11.5c-3.9-2.5-9-1.3-11.5,2.5l-5.8,9c-14.9-10.5-29.7-16.4-40.6-16.6l-2.8-8c-1.5-4.3-6.2-6.6-10.5-5.1
			c-4.3,1.5-6.6,6.2-5.1,10.5l3.3,9.4c-2.5,4.1-3.2,10-1.5,17.9c1.1,5.2,1.4,10.3,1.3,15.3c-0.3,0-0.6,0-0.9,0.1l-11.4,1.5
			c-4.5,0.6-7.8,4.7-7.2,9.3c0.6,4.5,4.7,7.8,9.3,7.2l9.4-1.2c-0.7,13.4-0.2,25.5,11.9,35.5c7.6,6.3,27,3,43-1l2.3,4.7
			c2,4.1,7,5.8,11.1,3.8s5.8-7,3.8-11.1l-0.9-1.9c4.3-1.2,7.3-2.1,8.2-2c7,0.3,11.7-1.6,14.8-4.5l11.2-0.9c4.6-0.3,8-4.3,7.7-8.9
			C2276.5,650,2272.5,646.5,2267.9,646.9z"/>
		<ellipse class="st0" cx="2181.3" cy="634.6" rx="12.6" ry="12.2"/>
		
			<ellipse transform="matrix(0.7639 -0.6453 0.6453 0.7639 93.823 1576.5948)" class="st0" cx="2201.6" cy="660.1" rx="10.6" ry="6.8"/>
		
			<ellipse transform="matrix(0.7639 -0.6453 0.6453 0.7639 114.4015 1576.2913)" class="st0" cx="2211.5" cy="631.8" rx="7.3" ry="4.7"/>
		<path class="st1" d="M2089.8,596l-7,3.4c-9.9-11.2-28.5-15.7-42.2-6.3l-1.9-3.9c-2-4.1-7-5.8-11.1-3.8c-4.1,2-5.8,7-3.8,11.1
			l5.1,10.3l0.2,0.3c-1,2.1-1.9,4.4-2.6,7c-6.3,21.2,1.8,27,12.9,31.2l-1.9,3.1c-2.4,3.9-1.2,9,2.8,11.4c3.9,2.4,9,1.2,11.4-2.8
			l3.6-5.9c1.5,0.7,3,1.5,4.4,2.4c11.5,7.3,21.7,9.6,32.3-0.5c11.3-10.9-2.7-23.5-2.2-35.3c0-1,0-2.1-0.1-3.1l7.5-3.6
			c4.1-2,5.9-7,3.9-11.1C2099,595.8,2094,594,2089.8,596z"/>
		<circle class="st0" cx="2076.4" cy="637.2" r="9"/>
		<circle class="st0" cx="2073.3" cy="614.4" r="6"/>
		<circle class="st0" cx="2058.7" cy="628.4" r="3.8"/>
		<path class="st1" d="M2163.7,705.6l-11.3,2.1c-1,0.2-2,0.6-2.8,1.1c-6.4-3.2-14.5-6.4-24.4-9.7c-4-1.3-7-3.1-9.6-4.9l3.8-9
			c1.8-4.2-0.2-9.1-4.4-10.9c-4.2-1.8-9.1,0.2-10.9,4.4l-3,7.1l-0.1,0c-14.2-4.3-41.4,2-49.7,15.5c-0.6,0.9-1.1,1.8-1.5,2.7
			l-9.2,0.8c-4.6,0.4-7.9,4.4-7.5,9c0.4,4.6,4.4,7.9,9,7.5l4.8-0.4c0,0.6,0.1,1.3,0.2,2c2.2,21.8,27.3,31,54.3,32l2,10.4
			c0.9,4.5,5.2,7.5,9.7,6.6c4.5-0.9,7.5-5.2,6.6-9.7l-1.5-7.7c32.6-2.7,61.4-16.2,49.2-32.8c4.2-1.1,6.9-5.2,6.1-9.5
			C2172.5,707.7,2168.2,704.8,2163.7,705.6z"/>
		<circle class="st0" cx="2074.9" cy="727.7" r="10.7"/>
		<circle class="st0" cx="2086.7" cy="705.5" r="7"/>
		<circle class="st0" cx="2098.7" cy="724.2" r="5.2"/>
		<circle class="st0" cx="2131.1" cy="732.3" r="10.7"/>
	</g>
	<g>
		<circle class="st1" cx="602.5" cy="699.2" r="32.4"/>
		<circle class="st1" cx="666.4" cy="611.8" r="24.4"/>
		<circle class="st1" cx="583.9" cy="569.3" r="15.9"/>
	</g>
	<g>
		<circle class="st1" cx="2274.8" cy="1691.7" r="32.4"/>
		<circle class="st1" cx="2338.7" cy="1779.1" r="24.4"/>
		<circle class="st1" cx="2256.2" cy="1821.6" r="15.9"/>
	</g>
</g>
</svg>
